<svg xmlns="http://www.w3.org/2000/svg" xmlns:xlink="http://www.w3.org/1999/xlink" width="541" zoomAndPan="magnify" viewBox="0 0 405.75 404.250001" height="539" preserveAspectRatio="xMidYMid meet" version="1.0"><defs><clipPath id="559f82336a"><path d="M 202.824219 370.5625 L 213.304688 370.5625 L 213.304688 381.042969 L 202.824219 381.042969 Z M 202.824219 370.5625 " clip-rule="nonzero"/></clipPath></defs><path fill="#caddff" d="M 156.9375 31.960938 C 136.136719 39.972656 47.402344 74.152344 25.597656 156.574219 C 0.738281 250.558594 75.09375 361.207031 177.875 381.597656 C 284.488281 402.746094 404.921875 353.035156 395.460938 276.011719 C 391.496094 243.710938 340.289062 224.878906 345.375 188.847656 C 348.882812 164 374.828125 160.683594 386.300781 126.992188 C 394.101562 104.0625 399.339844 77.496094 387.25 59.496094 C 347.578125 0.40625 236.203125 1.429688 156.9375 31.960938 " fill-opacity="1" fill-rule="nonzero"/><path fill="#000000" d="M 339.945312 386.472656 L 200.558594 386.472656 C 194.625 386.472656 189.820312 381.582031 189.820312 375.554688 L 203.410156 88.269531 C 203.410156 82.242188 208.214844 77.351562 214.144531 77.351562 L 353.535156 77.351562 C 359.464844 77.351562 364.273438 82.242188 364.273438 88.269531 L 350.6875 375.554688 C 350.6875 381.582031 345.875 386.472656 339.945312 386.472656 " fill-opacity="1" fill-rule="nonzero"/><path fill="#ffffff" d="M 334.199219 385.789062 L 194.808594 385.789062 C 188.878906 385.789062 184.070312 380.921875 184.070312 374.921875 L 197.660156 88.894531 C 197.660156 82.890625 202.46875 78.027344 208.398438 78.027344 L 347.789062 78.027344 C 353.71875 78.027344 358.527344 82.890625 358.527344 88.894531 L 344.9375 374.921875 C 344.9375 380.921875 340.128906 385.789062 334.199219 385.789062 " fill-opacity="1" fill-rule="nonzero"/><path fill="#000000" d="M 208.398438 78.707031 C 202.851562 78.707031 198.339844 83.277344 198.339844 88.894531 L 184.75 374.953125 C 184.753906 380.539062 189.265625 385.109375 194.808594 385.109375 L 334.199219 385.109375 C 339.746094 385.109375 344.257812 380.539062 344.257812 374.921875 L 357.847656 88.863281 C 357.847656 83.277344 353.335938 78.707031 347.789062 78.707031 Z M 334.199219 386.46875 L 194.808594 386.46875 C 188.515625 386.46875 183.394531 381.289062 183.394531 374.921875 L 196.984375 88.863281 C 196.980469 82.527344 202.101562 77.347656 208.398438 77.347656 L 347.789062 77.347656 C 354.085938 77.347656 359.203125 82.527344 359.203125 88.894531 L 345.617188 374.953125 C 345.617188 381.289062 340.492188 386.46875 334.199219 386.46875 " fill-opacity="1" fill-rule="nonzero"/><path fill="#000000" d="M 248.558594 77.417969 L 251.921875 82.433594 C 253.964844 85.480469 257.386719 87.308594 261.050781 87.308594 L 294.992188 87.308594 C 298.578125 87.308594 301.933594 85.554688 303.988281 82.617188 L 307.632812 77.417969 L 248.558594 77.417969 " fill-opacity="1" fill-rule="nonzero"/><path fill="#caddff" d="M 236.21875 142.183594 L 217.398438 142.183594 C 215.566406 142.183594 214.082031 140.703125 214.082031 138.871094 L 214.082031 138.859375 C 214.082031 137.027344 215.566406 135.542969 217.398438 135.542969 L 236.21875 135.542969 C 238.046875 135.542969 239.535156 137.027344 239.535156 138.859375 L 239.535156 138.871094 C 239.535156 140.703125 238.046875 142.183594 236.21875 142.183594 " fill-opacity="1" fill-rule="nonzero"/><path fill="#caddff" d="M 335.722656 161.078125 L 216.613281 161.078125 C 214.78125 161.078125 213.296875 159.59375 213.296875 157.765625 L 213.296875 157.753906 C 213.296875 155.921875 214.78125 154.4375 216.613281 154.4375 L 335.722656 154.4375 C 337.554688 154.4375 339.039062 155.921875 339.039062 157.753906 L 339.039062 157.765625 C 339.039062 159.59375 337.554688 161.078125 335.722656 161.078125 " fill-opacity="1" fill-rule="nonzero"/><path fill="#caddff" d="M 329.539062 322.257812 L 210.425781 322.257812 C 208.597656 322.257812 207.113281 320.773438 207.113281 318.941406 L 207.113281 318.929688 C 207.113281 317.097656 208.597656 315.613281 210.425781 315.613281 L 329.539062 315.613281 C 331.371094 315.613281 332.851562 317.097656 332.851562 318.929688 L 332.851562 318.941406 C 332.851562 320.773438 331.371094 322.257812 329.539062 322.257812 " fill-opacity="1" fill-rule="nonzero"/><path fill="#caddff" d="M 327.964844 340.5625 L 208.855469 340.5625 C 207.023438 340.5625 205.539062 339.078125 205.539062 337.246094 L 205.539062 337.234375 C 205.539062 335.402344 207.023438 333.917969 208.855469 333.917969 L 327.964844 333.917969 C 329.796875 333.917969 331.285156 335.402344 331.285156 337.234375 L 331.285156 337.246094 C 331.285156 339.078125 329.796875 340.5625 327.964844 340.5625 " fill-opacity="1" fill-rule="nonzero"/><path fill="#caddff" d="M 273.097656 360.488281 L 208.414062 360.488281 C 206.582031 360.488281 205.097656 359.003906 205.097656 357.171875 L 205.097656 357.160156 C 205.097656 355.328125 206.582031 353.84375 208.414062 353.84375 L 273.097656 353.84375 C 274.925781 353.84375 276.410156 355.328125 276.410156 357.160156 L 276.410156 357.171875 C 276.410156 359.003906 274.925781 360.488281 273.097656 360.488281 " fill-opacity="1" fill-rule="nonzero"/><path fill="#caddff" d="M 269.804688 142.183594 L 250.984375 142.183594 C 249.15625 142.183594 247.671875 140.703125 247.671875 138.871094 L 247.671875 138.859375 C 247.671875 137.027344 249.15625 135.542969 250.984375 135.542969 L 269.804688 135.542969 C 271.636719 135.542969 273.121094 137.027344 273.121094 138.859375 L 273.121094 138.871094 C 273.121094 140.703125 271.636719 142.183594 269.804688 142.183594 " fill-opacity="1" fill-rule="nonzero"/><path fill="#caddff" d="M 303.390625 142.1875 L 284.574219 142.1875 C 282.742188 142.1875 281.257812 140.703125 281.257812 138.871094 L 281.257812 138.855469 C 281.257812 137.027344 282.742188 135.542969 284.574219 135.542969 L 303.390625 135.542969 C 305.222656 135.542969 306.707031 137.027344 306.707031 138.855469 L 306.707031 138.871094 C 306.707031 140.703125 305.222656 142.1875 303.390625 142.1875 " fill-opacity="1" fill-rule="nonzero"/><path fill="#caddff" d="M 336.976562 142.1875 L 318.160156 142.1875 C 316.328125 142.1875 314.84375 140.703125 314.84375 138.871094 L 314.84375 138.859375 C 314.84375 137.027344 316.328125 135.542969 318.160156 135.542969 L 336.976562 135.542969 C 338.808594 135.542969 340.292969 137.027344 340.292969 138.859375 L 340.292969 138.871094 C 340.292969 140.703125 338.808594 142.1875 336.976562 142.1875 " fill-opacity="1" fill-rule="nonzero"/><path fill="#ffffff" d="M 110.875 61.875 C 121.898438 83.757812 113.128906 110.449219 91.289062 121.492188 C 69.449219 132.539062 42.808594 123.75 31.789062 101.867188 C 20.765625 79.984375 29.535156 53.292969 51.375 42.25 C 73.214844 31.207031 99.851562 39.992188 110.875 61.875 " fill-opacity="1" fill-rule="nonzero"/><path fill="#000000" d="M 71.289062 38.144531 C 64.554688 38.144531 57.867188 39.726562 51.679688 42.855469 C 30.210938 53.710938 21.558594 80.046875 32.394531 101.5625 C 37.648438 111.988281 46.640625 119.742188 57.71875 123.390625 C 68.777344 127.027344 80.589844 126.140625 90.984375 120.882812 C 112.453125 110.027344 121.105469 83.691406 110.269531 62.179688 C 105.015625 51.75 96.023438 44 84.945312 40.355469 C 80.46875 38.878906 75.867188 38.144531 71.289062 38.144531 Z M 71.375 126.953125 C 66.652344 126.953125 61.910156 126.199219 57.292969 124.679688 C 45.871094 120.921875 36.597656 112.925781 31.183594 102.171875 C 20.007812 79.992188 28.929688 52.835938 51.070312 41.644531 C 61.785156 36.226562 73.964844 35.308594 85.371094 39.0625 C 96.792969 42.824219 106.066406 50.816406 111.480469 61.570312 C 122.65625 83.75 113.734375 110.902344 91.59375 122.097656 C 85.21875 125.320312 78.320312 126.953125 71.375 126.953125 " fill-opacity="1" fill-rule="nonzero"/><path fill="#99b9ff" d="M 107.0625 63.804688 C 117.023438 83.578125 109.101562 107.695312 89.367188 117.675781 C 69.628906 127.65625 45.558594 119.714844 35.597656 99.941406 C 25.636719 80.167969 33.5625 56.050781 53.296875 46.070312 C 73.03125 36.089844 97.105469 44.03125 107.0625 63.804688 " fill-opacity="1" fill-rule="nonzero"/><path fill="#ffffff" d="M 103.9375 65.382812 C 113.027344 83.429688 105.796875 105.4375 87.789062 114.542969 C 69.777344 123.652344 47.8125 116.40625 38.722656 98.363281 C 29.632812 80.316406 36.867188 58.308594 54.875 49.199219 C 72.882812 40.09375 94.851562 47.339844 103.9375 65.382812 " fill-opacity="1" fill-rule="nonzero"/><path fill="#000000" d="M 71.296875 45.933594 C 65.761719 45.933594 60.265625 47.234375 55.179688 49.804688 C 37.535156 58.726562 30.425781 80.371094 39.332031 98.054688 C 43.648438 106.625 51.039062 112.996094 60.144531 115.996094 C 69.234375 118.988281 78.941406 118.253906 87.480469 113.9375 C 105.128906 105.011719 112.238281 83.367188 103.332031 65.6875 C 99.015625 57.113281 91.625 50.746094 82.519531 47.746094 C 78.839844 46.535156 75.058594 45.933594 71.296875 45.933594 Z M 71.371094 119.164062 C 67.460938 119.164062 63.539062 118.539062 59.71875 117.28125 C 50.269531 114.171875 42.597656 107.5625 38.117188 98.664062 C 28.875 80.316406 36.253906 57.855469 54.570312 48.59375 C 63.433594 44.113281 73.511719 43.351562 82.945312 46.457031 C 92.394531 49.566406 100.066406 56.179688 104.546875 65.074219 C 113.789062 83.425781 106.410156 105.886719 88.09375 115.148438 C 82.820312 117.816406 77.113281 119.164062 71.371094 119.164062 " fill-opacity="1" fill-rule="nonzero"/><path fill="#4e45ff" d="M 85.230469 89.34375 C 84.609375 91 83.253906 92.378906 81.175781 93.480469 L 73.800781 97.390625 L 67.472656 85.457031 L 75.394531 81.253906 C 79.5 79.191406 82.601562 80.140625 84.707031 84.113281 C 85.683594 85.949219 85.855469 87.695312 85.230469 89.34375 Z M 75.125 68.253906 C 76.03125 69.972656 76.152344 71.605469 75.488281 73.15625 C 74.820312 74.707031 73.453125 76.03125 71.390625 77.125 L 64.886719 80.574219 L 59.195312 69.847656 L 65.648438 66.421875 C 67.921875 65.21875 69.820312 64.75 71.339844 65.019531 C 72.859375 65.289062 74.121094 66.367188 75.125 68.253906 Z M 85.378906 76.382812 C 83.59375 75.515625 81.621094 75.328125 79.460938 75.816406 C 80.753906 74.226562 81.492188 72.566406 81.675781 70.828125 C 81.863281 69.085938 81.53125 67.417969 80.683594 65.816406 C 79.019531 62.679688 76.734375 60.863281 73.828125 60.375 C 71.433594 59.972656 68.679688 60.449219 65.574219 61.804688 L 62.921875 56.808594 L 60.125 58.292969 L 62.734375 63.214844 L 59.003906 65.195312 L 56.390625 60.273438 L 53.589844 61.753906 L 56.203125 66.679688 L 47.667969 71.25 L 50.152344 75.933594 L 54.0625 73.859375 L 67.671875 99.519531 L 63.683594 101.636719 L 66.15625 106.300781 L 74.789062 101.722656 L 77.589844 107.011719 L 80.390625 105.527344 L 77.539062 100.148438 L 81.273438 98.171875 L 84.125 103.546875 L 86.921875 102.0625 L 84.054688 96.652344 C 87.292969 94.722656 89.441406 92.472656 90.484375 89.898438 C 91.65625 87.023438 91.371094 83.945312 89.632812 80.664062 C 88.578125 78.679688 87.160156 77.25 85.378906 76.382812 " fill-opacity="1" fill-rule="nonzero"/><path fill="#4e45ff" d="M 116.035156 386.488281 C 114.734375 386.488281 113.660156 385.480469 113.570312 384.183594 C 113.367188 381.242188 113.453125 376.019531 115.910156 371.707031 C 116.59375 370.507812 117.914062 369.890625 119.214844 370.128906 L 129.835938 372.066406 C 130.933594 372.242188 132.039062 371.824219 132.789062 370.949219 L 133.773438 369.640625 C 134.46875 368.71875 135.707031 368.394531 136.761719 368.875 C 141.210938 370.894531 152.558594 376.523438 156.101562 382.792969 C 157.035156 384.441406 155.839844 386.488281 153.949219 386.488281 L 116.035156 386.488281 " fill-opacity="1" fill-rule="nonzero"/><path fill="#000000" d="M 150.652344 384.058594 L 116.09375 384.058594 C 115.71875 384.058594 115.414062 383.753906 115.414062 383.378906 C 115.414062 383.007812 115.71875 382.703125 116.09375 382.703125 L 150.652344 382.703125 C 151.027344 382.703125 151.332031 383.007812 151.332031 383.378906 C 151.332031 383.753906 151.027344 384.058594 150.652344 384.058594 " fill-opacity="1" fill-rule="nonzero"/><path fill="#000000" d="M 135.503906 379.078125 C 135.363281 379.078125 135.21875 379.035156 135.097656 378.945312 C 134.796875 378.71875 134.734375 378.292969 134.960938 377.992188 L 138.453125 373.3125 C 138.675781 373.011719 139.101562 372.945312 139.402344 373.171875 C 139.703125 373.398438 139.765625 373.820312 139.539062 374.121094 L 136.046875 378.804688 C 135.914062 378.984375 135.710938 379.078125 135.503906 379.078125 " fill-opacity="1" fill-rule="nonzero"/><path fill="#000000" d="M 142.6875 380.359375 C 142.578125 380.359375 142.46875 380.332031 142.367188 380.277344 C 142.035156 380.101562 141.914062 379.691406 142.089844 379.355469 L 143.703125 376.355469 C 143.878906 376.027344 144.292969 375.902344 144.621094 376.078125 C 144.953125 376.257812 145.078125 376.667969 144.898438 377 L 143.285156 380 C 143.164062 380.226562 142.929688 380.359375 142.6875 380.359375 " fill-opacity="1" fill-rule="nonzero"/><path fill="#4e45ff" d="M 32.023438 347.074219 C 32.34375 352.8125 33.628906 368.71875 38.316406 379.058594 C 39.292969 381.21875 42.1875 381.617188 43.746094 379.832031 C 44.644531 378.796875 45.722656 377.367188 46.984375 375.375 C 51.222656 368.691406 53.582031 348.691406 54.019531 344.695312 C 54.066406 344.253906 53.902344 343.820312 53.578125 343.519531 L 51.394531 341.507812 C 50.449219 340.632812 48.953125 340.773438 48.183594 341.800781 L 47.804688 342.304688 C 47.507812 342.703125 46.890625 342.632812 46.6875 342.175781 L 44.875 338.070312 C 44.359375 336.90625 42.976562 336.402344 41.839844 336.980469 C 39.839844 338 36.6875 339.9375 33.4375 343.261719 C 32.453125 344.273438 31.945312 345.660156 32.023438 347.074219 " fill-opacity="1" fill-rule="nonzero"/><path fill="#000000" d="M 41.960938 378.894531 C 41.683594 378.894531 41.421875 378.726562 41.320312 378.449219 C 36.046875 364.003906 34.949219 344.710938 34.9375 344.519531 C 34.917969 344.144531 35.207031 343.824219 35.578125 343.804688 C 35.953125 343.789062 36.273438 344.070312 36.292969 344.445312 C 36.304688 344.636719 37.390625 363.730469 42.597656 377.984375 C 42.726562 378.335938 42.546875 378.726562 42.191406 378.855469 C 42.117188 378.882812 42.039062 378.894531 41.960938 378.894531 " fill-opacity="1" fill-rule="nonzero"/><path fill="#000000" d="M 49.933594 364.082031 C 49.910156 364.082031 49.882812 364.082031 49.855469 364.078125 L 43.945312 363.394531 C 43.574219 363.355469 43.304688 363.015625 43.347656 362.644531 C 43.390625 362.273438 43.730469 362.003906 44.101562 362.046875 L 50.011719 362.730469 C 50.382812 362.769531 50.652344 363.105469 50.609375 363.480469 C 50.570312 363.828125 50.277344 364.082031 49.933594 364.082031 " fill-opacity="1" fill-rule="nonzero"/><path fill="#000000" d="M 50.609375 357.203125 C 50.582031 357.203125 50.554688 357.203125 50.527344 357.199219 L 43.101562 356.34375 C 42.730469 356.300781 42.460938 355.96875 42.503906 355.59375 C 42.546875 355.222656 42.886719 354.953125 43.257812 354.996094 L 50.683594 355.851562 C 51.058594 355.894531 51.324219 356.230469 51.28125 356.605469 C 51.242188 356.949219 50.949219 357.203125 50.609375 357.203125 " fill-opacity="1" fill-rule="nonzero"/><path fill="#000000" d="M 146.527344 231.34375 C 146.527344 231.34375 148.460938 245.941406 144.046875 287.296875 C 143.25 294.753906 141.671875 301.945312 139.488281 308.757812 C 136.667969 317.539062 134.496094 332.816406 134.347656 365.265625 C 134.328125 369.148438 132.601562 372.492188 129.96875 373.773438 C 126.035156 375.6875 119.511719 376.179688 119.382812 367.28125 C 119.175781 352.90625 114.332031 320.347656 115.359375 307.027344 C 116.382812 293.703125 109.949219 239.839844 120.742188 234.160156 C 131.539062 228.484375 146.527344 231.34375 146.527344 231.34375 " fill-opacity="1" fill-rule="nonzero"/><path fill="#000000" d="M 99.714844 228.410156 C 99.714844 228.410156 85.605469 271.910156 82.316406 291.625 C 82.316406 291.625 82.5625 297 75.410156 302.203125 C 68.253906 307.402344 64.8125 299.886719 44.390625 334.523438 C 44.390625 334.523438 40.609375 344.46875 47.398438 347.796875 C 48.6875 348.425781 50.214844 348.011719 51.269531 346.75 C 56.179688 340.882812 66.960938 329.253906 80.023438 322.527344 C 95.652344 314.480469 97.238281 310.121094 105.738281 293.414062 C 114.242188 276.703125 131.921875 251.222656 132.800781 244.257812 C 133.675781 237.292969 99.714844 228.410156 99.714844 228.410156 " fill-opacity="1" fill-rule="nonzero"/><path fill="#caddff" d="M 113.949219 280.734375 C 113.839844 280.734375 113.726562 280.707031 113.617188 280.648438 C 113.292969 280.464844 113.175781 280.050781 113.359375 279.722656 C 118.601562 270.367188 121.285156 266.222656 126.792969 262.847656 C 127.113281 262.652344 127.53125 262.753906 127.726562 263.074219 C 127.921875 263.390625 127.824219 263.808594 127.503906 264.007812 C 122.269531 267.210938 119.664062 271.25 114.542969 280.386719 C 114.417969 280.609375 114.1875 280.734375 113.949219 280.734375 " fill-opacity="1" fill-rule="nonzero"/><path fill="#caddff" d="M 96.828125 248.796875 C 96.484375 248.796875 96.1875 248.535156 96.152344 248.1875 C 96.117188 247.8125 96.386719 247.480469 96.761719 247.441406 C 107.03125 246.414062 109.355469 240.574219 109.378906 240.515625 C 109.511719 240.164062 109.902344 239.988281 110.253906 240.121094 C 110.601562 240.253906 110.78125 240.648438 110.648438 240.996094 C 110.542969 241.269531 107.992188 247.683594 96.898438 248.796875 C 96.875 248.796875 96.851562 248.796875 96.828125 248.796875 " fill-opacity="1" fill-rule="nonzero"/><path fill="#caddff" d="M 144.390625 256.617188 C 144.261719 256.617188 144.128906 256.578125 144.011719 256.503906 C 139.113281 253.230469 139.253906 246.328125 139.261719 246.035156 C 139.273438 245.65625 139.585938 245.363281 139.957031 245.375 C 140.332031 245.382812 140.628906 245.699219 140.617188 246.070312 C 140.617188 246.136719 140.5 252.523438 144.765625 255.375 C 145.078125 255.582031 145.164062 256.003906 144.953125 256.316406 C 144.824219 256.511719 144.609375 256.617188 144.390625 256.617188 " fill-opacity="1" fill-rule="nonzero"/><path fill="#ffffff" d="M 76.292969 129.167969 L 78.644531 124.105469 C 79.433594 122.410156 79.53125 120.46875 78.917969 118.699219 L 76.875 112.816406 C 76.875 112.816406 75.195312 112.109375 74.546875 115.542969 C 73.898438 118.976562 75.175781 122.273438 72.621094 124.265625 C 70.070312 126.253906 64.363281 126.113281 64.363281 126.113281 L 66.039062 128.355469 C 66.988281 129.625 67.398438 132.777344 67.398438 132.777344 L 67.695312 138.757812 C 67.695312 138.757812 72.707031 137.371094 75.667969 136.3125 L 75.59375 133.863281 C 75.59375 133.863281 75.628906 130.589844 76.292969 129.167969 " fill-opacity="1" fill-rule="nonzero"/><path fill="#000000" d="M 65.699219 126.773438 L 66.578125 127.949219 C 67.605469 129.324219 68.027344 132.351562 68.070312 132.691406 L 68.074219 132.746094 L 68.332031 137.875 C 69.765625 137.46875 72.789062 136.589844 74.972656 135.835938 L 74.914062 133.886719 C 74.917969 133.507812 74.972656 130.394531 75.675781 128.886719 L 78.027344 123.824219 C 78.746094 122.273438 78.835938 120.535156 78.273438 118.921875 L 76.375 113.457031 C 76.328125 113.46875 76.273438 113.488281 76.21875 113.523438 C 75.96875 113.671875 75.503906 114.148438 75.214844 115.671875 C 75.007812 116.757812 75.007812 117.847656 75.003906 118.902344 C 75.003906 121.050781 75 123.273438 73.039062 124.800781 C 71.101562 126.316406 67.621094 126.6875 65.699219 126.773438 Z M 67.058594 139.640625 L 66.722656 132.839844 C 66.605469 131.988281 66.175781 129.675781 65.492188 128.761719 L 62.980469 125.402344 L 64.378906 125.4375 C 64.433594 125.441406 69.875 125.550781 72.203125 123.730469 C 73.640625 122.609375 73.644531 120.972656 73.648438 118.898438 C 73.648438 117.78125 73.652344 116.628906 73.878906 115.417969 C 74.183594 113.804688 74.765625 112.761719 75.601562 112.3125 C 76.378906 111.894531 77.0625 112.160156 77.136719 112.191406 L 77.414062 112.3125 L 79.558594 118.480469 C 80.234375 120.425781 80.128906 122.523438 79.257812 124.394531 L 76.90625 129.457031 C 76.414062 130.515625 76.28125 133.003906 76.273438 133.875 L 76.359375 136.785156 L 75.894531 136.953125 C 72.945312 138.007812 67.925781 139.398438 67.875 139.414062 L 67.058594 139.640625 " fill-opacity="1" fill-rule="nonzero"/><path fill="#ffffff" d="M 128.164062 146.6875 L 126.816406 151.828125 L 120.980469 150.367188 C 120.488281 150.246094 120.003906 150.097656 119.519531 149.949219 C 113.035156 147.976562 107.132812 150.195312 101.839844 153.808594 L 81.421875 169.707031 L 78.882812 140.535156 L 78.296875 136.402344 C 78.074219 133.703125 72.582031 134.894531 69.742188 135.8125 C 67.917969 136.398438 65.054688 137.816406 64.742188 139.707031 L 64.507812 144.078125 C 64.507812 144.078125 63.214844 184.53125 68.621094 189.046875 C 74.824219 194.226562 88.097656 189.847656 94.347656 187.335938 C 96.472656 186.480469 98.867188 187.675781 99.480469 189.886719 C 100.890625 194.992188 101.976562 205.734375 97.359375 226.363281 C 97.359375 226.363281 95.980469 228.929688 98.539062 232.484375 C 98.539062 232.484375 117.449219 241.5625 132.023438 242.746094 C 146.601562 243.929688 149.160156 238.40625 149.160156 236.628906 C 149.160156 234.851562 147.226562 216.832031 148.605469 209.136719 C 149.367188 204.871094 150.972656 201.589844 152.253906 199.507812 C 153.203125 197.960938 160.207031 211.589844 170.519531 219.558594 C 188.039062 233.097656 201.359375 232.738281 204.742188 232.371094 C 205.257812 232.316406 205.703125 231.992188 205.925781 231.523438 L 210.542969 221.71875 C 210.953125 220.84375 210.445312 219.820312 209.507812 219.617188 C 204.433594 218.53125 190.121094 214.234375 180.242188 199.1875 C 172.875 187.972656 168.269531 177.082031 163.15625 169.519531 C 160.816406 166.0625 155.96875 162.425781 153.226562 160.527344 C 152.105469 159.746094 151.753906 158.242188 152.421875 157.050781 L 152.953125 156.105469 C 153.523438 155.09375 153.363281 153.828125 152.5625 152.984375 C 149.898438 150.167969 143.339844 144.167969 134.539062 142.558594 C 131.757812 142.050781 128.878906 143.949219 128.164062 146.6875 " fill-opacity="1" fill-rule="nonzero"/><path fill="#000000" d="M 98.992188 231.945312 C 100.84375 232.816406 118.496094 240.964844 132.078125 242.070312 C 141.109375 242.800781 145.1875 240.941406 147.019531 239.253906 C 148.097656 238.257812 148.480469 237.214844 148.480469 236.628906 C 148.480469 236.28125 148.390625 235.128906 148.277344 233.671875 C 147.808594 227.671875 146.832031 215.1875 147.9375 209.015625 C 148.726562 204.601562 150.40625 201.214844 151.675781 199.152344 C 151.839844 198.882812 152.109375 198.722656 152.414062 198.710938 C 153.277344 198.679688 154.160156 199.796875 156.789062 203.355469 C 160.015625 207.734375 164.898438 214.355469 170.933594 219.019531 C 188.128906 232.308594 201.101562 232.082031 204.667969 231.695312 C 204.945312 231.664062 205.1875 231.492188 205.308594 231.234375 L 209.929688 221.429688 C 210.035156 221.199219 210.03125 220.941406 209.921875 220.714844 C 209.8125 220.492188 209.605469 220.332031 209.363281 220.28125 C 203.734375 219.074219 189.574219 214.640625 179.675781 199.558594 C 175.75 193.585938 172.570312 187.636719 169.765625 182.386719 C 167.300781 177.777344 164.976562 173.425781 162.589844 169.902344 C 160.308594 166.527344 155.503906 162.929688 152.839844 161.082031 C 151.421875 160.097656 150.988281 158.21875 151.832031 156.714844 L 152.359375 155.773438 C 152.785156 155.019531 152.667969 154.082031 152.070312 153.453125 C 149.664062 150.90625 143.125 144.820312 134.417969 143.226562 C 132.011719 142.789062 129.449219 144.453125 128.820312 146.859375 L 127.300781 152.652344 L 120.816406 151.027344 C 120.363281 150.914062 119.917969 150.777344 119.484375 150.648438 L 119.324219 150.597656 C 113.863281 148.9375 108.429688 150.136719 102.222656 154.367188 L 80.855469 171.007812 L 78.207031 140.59375 L 77.621094 136.5 C 77.59375 136.160156 77.476562 135.953125 77.234375 135.792969 C 76.054688 135.003906 72.726562 135.558594 69.949219 136.457031 C 67.941406 137.105469 65.675781 138.421875 65.417969 139.785156 L 65.183594 144.113281 C 64.828125 155.261719 64.832031 184.996094 69.054688 188.523438 C 75.074219 193.546875 88.570312 188.925781 94.09375 186.707031 C 95.28125 186.226562 96.625 186.28125 97.773438 186.847656 C 98.929688 187.421875 99.789062 188.460938 100.132812 189.707031 C 101.679688 195.285156 102.566406 206.199219 98.019531 226.515625 L 98 226.605469 L 97.957031 226.6875 C 97.914062 226.773438 96.867188 228.894531 98.992188 231.945312 Z M 135.859375 243.589844 C 134.667969 243.589844 133.375 243.539062 131.96875 243.421875 C 117.4375 242.242188 98.4375 233.1875 98.246094 233.097656 L 98.089844 233.019531 L 97.988281 232.878906 C 95.460938 229.375 96.464844 226.6875 96.710938 226.140625 C 101.179688 206.15625 100.328125 195.492188 98.824219 190.066406 C 98.582031 189.195312 97.980469 188.46875 97.171875 188.066406 C 96.367188 187.667969 95.429688 187.632812 94.601562 187.964844 C 87.457031 190.839844 74.53125 194.863281 68.183594 189.566406 C 62.683594 184.972656 63.695312 148.230469 63.828125 144.054688 L 64.074219 139.597656 C 64.515625 136.914062 68.699219 135.433594 69.53125 135.164062 C 70.984375 134.695312 75.894531 133.269531 77.988281 134.664062 C 78.574219 135.054688 78.914062 135.636719 78.972656 136.347656 L 79.558594 140.441406 L 81.992188 168.402344 L 101.421875 153.269531 C 107.941406 148.824219 113.914062 147.535156 119.714844 149.296875 L 119.878906 149.347656 C 120.316406 149.480469 120.726562 149.605469 121.144531 149.710938 L 126.328125 151.007812 L 127.503906 146.515625 C 128.324219 143.394531 131.535156 141.316406 134.660156 141.890625 C 143.765625 143.554688 150.558594 149.878906 153.058594 152.519531 C 154.066406 153.585938 154.261719 155.160156 153.542969 156.4375 L 153.015625 157.378906 C 152.515625 158.273438 152.773438 159.382812 153.613281 159.964844 C 156.355469 161.867188 161.308594 165.582031 163.714844 169.140625 C 166.140625 172.722656 168.484375 177.105469 170.964844 181.75 C 173.757812 186.972656 176.921875 192.894531 180.808594 198.816406 C 190.433594 213.476562 204.183594 217.78125 209.648438 218.953125 C 210.300781 219.09375 210.84375 219.515625 211.140625 220.113281 C 211.433594 220.710938 211.441406 221.402344 211.15625 222.007812 L 206.539062 231.8125 C 206.214844 232.503906 205.566406 232.964844 204.816406 233.042969 C 201.121094 233.445312 187.699219 233.695312 170.105469 220.09375 C 163.917969 215.3125 158.96875 208.601562 155.695312 204.164062 C 154.480469 202.519531 153.226562 200.820312 152.605469 200.242188 C 151.429688 202.230469 149.980469 205.308594 149.273438 209.253906 C 148.199219 215.253906 149.167969 227.625 149.632812 233.566406 C 149.757812 235.167969 149.839844 236.230469 149.839844 236.628906 C 149.839844 237.535156 149.339844 238.960938 147.941406 240.25 C 146.207031 241.847656 142.738281 243.589844 135.859375 243.589844 " fill-opacity="1" fill-rule="nonzero"/><path fill="#000000" d="M 136.359375 165.804688 C 136.175781 165.804688 135.992188 165.730469 135.859375 165.585938 C 128.070312 157.0625 129.707031 148.234375 129.78125 147.863281 C 129.851562 147.492188 130.210938 147.253906 130.578125 147.324219 C 130.945312 147.398438 131.1875 147.757812 131.113281 148.125 C 131.09375 148.226562 129.5625 156.679688 136.863281 164.667969 C 137.113281 164.945312 137.097656 165.375 136.820312 165.628906 C 136.6875 165.746094 136.523438 165.804688 136.359375 165.804688 " fill-opacity="1" fill-rule="nonzero"/><path fill="#000000" d="M 133.484375 177.125 C 133.214844 177.125 132.960938 176.964844 132.851562 176.699219 C 132.714844 176.351562 132.882812 175.957031 133.230469 175.816406 C 133.25 175.808594 135.277344 174.980469 138.289062 172.890625 C 143.902344 169.363281 148.957031 162.292969 149.007812 162.222656 C 149.226562 161.917969 149.648438 161.84375 149.953125 162.0625 C 150.261719 162.28125 150.332031 162.703125 150.113281 163.007812 C 149.902344 163.308594 144.851562 170.371094 139.039062 174.023438 C 135.914062 176.195312 133.824219 177.042969 133.734375 177.078125 C 133.652344 177.109375 133.566406 177.125 133.484375 177.125 " fill-opacity="1" fill-rule="nonzero"/><path fill="#000000" d="M 126.183594 222.886719 C 126.027344 222.886719 125.871094 222.835938 125.742188 222.726562 C 125.457031 222.480469 125.421875 222.050781 125.667969 221.765625 C 131.324219 215.160156 133.226562 212.9375 136.074219 205.867188 C 136.214844 205.515625 136.609375 205.347656 136.957031 205.488281 C 137.304688 205.628906 137.472656 206.023438 137.335938 206.375 C 134.402344 213.652344 132.460938 215.921875 126.699219 222.648438 C 126.566406 222.808594 126.375 222.886719 126.183594 222.886719 " fill-opacity="1" fill-rule="nonzero"/><path fill="#000000" d="M 113.128906 226.445312 C 112.933594 226.445312 112.742188 226.359375 112.605469 226.199219 C 112.367188 225.910156 112.40625 225.480469 112.695312 225.242188 C 126.191406 214.070312 138.539062 187.742188 138.664062 187.476562 C 138.820312 187.136719 139.226562 186.992188 139.566406 187.148438 C 139.90625 187.308594 140.050781 187.710938 139.894531 188.050781 C 139.769531 188.316406 127.292969 214.921875 113.5625 226.289062 C 113.433594 226.394531 113.28125 226.445312 113.128906 226.445312 " fill-opacity="1" fill-rule="nonzero"/><path fill="#ffffff" d="M 210.070312 222.875 C 210.070312 222.875 216.894531 221.453125 219.230469 220.28125 C 221.570312 219.109375 222.363281 220.3125 222.476562 220.984375 C 222.570312 221.566406 220.269531 223.554688 217.949219 224.296875 C 217.734375 224.363281 217.761719 224.675781 217.984375 224.707031 C 220.128906 224.992188 222.761719 226.113281 226.980469 224.695312 C 229.867188 223.722656 232.484375 226.046875 232.183594 228.335938 C 231.804688 231.179688 223.214844 240.085938 206.710938 230.289062 L 210.070312 222.875 " fill-opacity="1" fill-rule="nonzero"/><path fill="#000000" d="M 221.8125 220.929688 Z M 207.582031 230.011719 C 217.523438 235.730469 224 234.179688 227.003906 232.722656 C 229.855469 231.339844 231.375 229.234375 231.507812 228.246094 C 231.617188 227.425781 231.214844 226.527344 230.464844 225.910156 C 229.546875 225.15625 228.355469 224.949219 227.195312 225.339844 C 223.667969 226.527344 221.210938 226.023438 219.234375 225.621094 C 218.757812 225.523438 218.308594 225.433594 217.894531 225.378906 C 217.480469 225.320312 217.164062 224.992188 217.125 224.574219 C 217.089844 224.160156 217.34375 223.777344 217.742188 223.648438 C 219.746094 223.007812 221.484375 221.496094 221.777344 220.996094 C 221.738281 220.875 221.640625 220.679688 221.421875 220.566406 C 221.023438 220.363281 220.355469 220.480469 219.535156 220.890625 C 217.421875 221.949219 211.976562 223.160156 210.550781 223.46875 Z M 220.699219 235.429688 C 217.019531 235.429688 212.230469 234.355469 206.363281 230.871094 L 205.839844 230.5625 L 209.597656 222.28125 L 209.933594 222.210938 C 210.003906 222.195312 216.695312 220.792969 218.929688 219.675781 C 220.179688 219.046875 221.222656 218.941406 222.039062 219.355469 C 222.625 219.65625 223.039062 220.222656 223.144531 220.875 C 223.308594 221.871094 221.445312 223.382812 219.628906 224.316406 C 221.511719 224.699219 223.652344 225.097656 226.761719 224.050781 C 228.351562 223.515625 230.058594 223.816406 231.324219 224.859375 C 232.453125 225.789062 233.027344 227.125 232.855469 228.425781 C 232.652344 229.964844 230.738281 232.417969 227.59375 233.945312 C 226.089844 234.675781 223.785156 235.429688 220.699219 235.429688 " fill-opacity="1" fill-rule="nonzero"/><path fill="#ffffff" d="M 147.066406 145.9375 C 150.578125 146.632812 153.984375 144.34375 154.679688 140.828125 L 156.578125 131.175781 C 157.234375 127.851562 155.097656 124.621094 151.785156 123.929688 L 150.609375 123.683594 C 148.65625 123.273438 146.625 123.835938 145.152344 125.183594 L 142.398438 127.710938 C 141.988281 128.085938 141.378906 128.148438 140.90625 127.851562 C 140.273438 127.457031 139.339844 127.042969 138.546875 127.375 C 137.199219 127.933594 135.230469 132.9375 139.804688 134.738281 L 135.210938 146.675781 C 135.210938 146.675781 131.675781 153.421875 139.117188 155.703125 C 146.558594 157.984375 147.066406 145.9375 147.066406 145.9375 " fill-opacity="1" fill-rule="nonzero"/><path fill="#000000" d="M 139.175781 127.933594 C 139.046875 127.933594 138.921875 127.953125 138.808594 128 C 138.441406 128.152344 137.613281 129.402344 137.625 130.894531 C 137.636719 131.929688 138.0625 133.324219 140.054688 134.109375 L 140.679688 134.355469 L 135.8125 146.992188 C 135.800781 147.019531 134.425781 149.710938 135.402344 152.035156 C 135.984375 153.421875 137.300781 154.4375 139.316406 155.054688 C 140.785156 155.503906 141.996094 155.371094 143.027344 154.644531 C 146.074219 152.484375 146.382812 145.976562 146.386719 145.910156 L 146.421875 145.121094 L 147.199219 145.273438 C 148.714844 145.574219 150.261719 145.261719 151.550781 144.398438 C 152.835938 143.535156 153.710938 142.21875 154.011719 140.695312 L 155.914062 131.046875 C 156.492188 128.101562 154.582031 125.207031 151.648438 124.59375 L 150.472656 124.347656 C 148.734375 123.984375 146.917969 124.484375 145.609375 125.683594 L 142.859375 128.210938 C 142.222656 128.792969 141.273438 128.882812 140.546875 128.429688 C 140.21875 128.222656 139.667969 127.933594 139.175781 127.933594 Z M 140.902344 156.671875 C 140.273438 156.671875 139.609375 156.566406 138.917969 156.351562 C 136.492188 155.609375 134.886719 154.332031 134.144531 152.554688 C 132.984375 149.769531 134.394531 146.789062 134.589844 146.398438 L 138.941406 135.097656 C 136.65625 133.925781 136.277344 132.003906 136.269531 130.90625 C 136.253906 129.144531 137.195312 127.199219 138.285156 126.746094 C 139.125 126.398438 140.15625 126.582031 141.265625 127.277344 C 141.476562 127.410156 141.753906 127.382812 141.941406 127.210938 L 144.691406 124.683594 C 146.320312 123.191406 148.585938 122.570312 150.746094 123.019531 L 151.925781 123.265625 C 155.582031 124.027344 157.96875 127.636719 157.246094 131.308594 L 155.34375 140.957031 C 154.972656 142.835938 153.894531 144.460938 152.308594 145.527344 C 150.929688 146.449219 149.3125 146.859375 147.6875 146.714844 C 147.503906 148.628906 146.75 153.671875 143.808594 155.75 C 142.945312 156.363281 141.972656 156.671875 140.902344 156.671875 " fill-opacity="1" fill-rule="nonzero"/><path fill="#000000" d="M 147.054688 146.613281 C 147.007812 146.613281 146.957031 146.609375 146.910156 146.601562 C 146.453125 146.503906 142.441406 145.554688 141.683594 142.238281 C 141.601562 141.875 141.832031 141.507812 142.195312 141.425781 C 142.5625 141.34375 142.925781 141.574219 143.011719 141.9375 C 143.585938 144.472656 147.046875 145.238281 147.195312 145.273438 C 147.5625 145.351562 147.792969 145.710938 147.714844 146.078125 C 147.648438 146.398438 147.367188 146.613281 147.054688 146.613281 " fill-opacity="1" fill-rule="nonzero"/><path fill="#000000" d="M 137.59375 127.425781 L 137.058594 119.625 C 137.328125 116.238281 139.894531 113.480469 143.25 112.980469 L 152.96875 111.53125 C 153.953125 111.382812 154.808594 112.214844 154.691406 113.203125 C 154.574219 114.199219 155.429688 115.027344 156.417969 114.882812 L 160.84375 114.210938 C 162.148438 114.015625 163.0625 115.472656 162.316406 116.5625 L 162.050781 116.953125 C 161.496094 117.765625 161.855469 118.890625 162.78125 119.226562 L 166.078125 120.492188 C 167.207031 120.902344 167.429688 122.398438 166.46875 123.121094 L 157 129.675781 C 157 129.675781 156.203125 123.148438 149.800781 123.496094 C 146.5625 123.671875 144.074219 125.902344 142.9375 127.574219 C 142.5 128.21875 141.652344 129.363281 140.589844 128.179688 C 140.589844 128.179688 141.601562 125.636719 137.59375 127.425781 " fill-opacity="1" fill-rule="nonzero"/><path fill="#4e45ff" d="M 375.789062 296.945312 L 247.371094 304.09375 C 243.265625 304.324219 239.933594 300.9375 239.933594 296.53125 L 239.933594 202.394531 C 239.933594 197.988281 243.265625 194.230469 247.371094 194 L 375.789062 186.851562 C 379.894531 186.621094 383.222656 190.007812 383.222656 194.414062 L 383.222656 288.554688 C 383.222656 292.960938 379.894531 296.71875 375.789062 296.945312 " fill-opacity="1" fill-rule="nonzero"/><path fill="#000000" d="M 376.179688 187.519531 C 376.0625 187.519531 375.945312 187.523438 375.828125 187.527344 L 247.410156 194.679688 C 243.664062 194.886719 240.613281 198.347656 240.613281 202.394531 L 240.613281 296.53125 C 240.613281 298.546875 241.398438 300.445312 242.765625 301.738281 C 244.007812 302.914062 245.621094 303.515625 247.332031 303.417969 L 375.75 296.265625 C 379.5 296.058594 382.546875 292.597656 382.546875 288.554688 L 382.546875 194.414062 C 382.546875 192.398438 381.761719 190.5 380.398438 189.207031 C 379.238281 188.113281 377.753906 187.519531 376.179688 187.519531 Z M 246.980469 304.785156 C 245.058594 304.785156 243.246094 304.0625 241.832031 302.726562 C 240.195312 301.175781 239.257812 298.917969 239.257812 296.53125 L 239.257812 202.394531 C 239.257812 197.640625 242.878906 193.570312 247.332031 193.320312 L 375.75 186.171875 C 377.824219 186.054688 379.8125 186.785156 381.328125 188.21875 C 382.96875 189.769531 383.90625 192.027344 383.90625 194.414062 L 383.90625 288.554688 C 383.90625 293.308594 380.28125 297.375 375.828125 297.621094 L 247.410156 304.773438 C 247.265625 304.78125 247.125 304.785156 246.980469 304.785156 " fill-opacity="1" fill-rule="nonzero"/><path fill="#4e45ff" d="M 373.226562 306.371094 L 252.492188 306.371094 C 244.988281 306.371094 238.910156 300.289062 238.910156 292.789062 L 238.910156 209.855469 C 238.910156 202.355469 244.988281 196.277344 252.492188 196.277344 L 373.226562 196.277344 C 380.726562 196.277344 386.808594 202.355469 386.808594 209.855469 L 386.808594 292.789062 C 386.808594 300.289062 380.726562 306.371094 373.226562 306.371094 " fill-opacity="1" fill-rule="nonzero"/><path fill="#000000" d="M 252.496094 196.953125 C 245.378906 196.953125 239.589844 202.742188 239.589844 209.855469 L 239.589844 292.789062 C 239.589844 299.902344 245.378906 305.691406 252.496094 305.691406 L 373.230469 305.691406 C 380.34375 305.691406 386.128906 299.902344 386.128906 292.789062 L 386.128906 209.855469 C 386.128906 202.742188 380.34375 196.953125 373.230469 196.953125 Z M 373.230469 307.046875 L 252.496094 307.046875 C 244.628906 307.046875 238.234375 300.652344 238.234375 292.789062 L 238.234375 209.855469 C 238.234375 201.996094 244.628906 195.59375 252.496094 195.59375 L 373.230469 195.59375 C 381.09375 195.59375 387.488281 201.996094 387.488281 209.855469 L 387.488281 292.789062 C 387.488281 300.652344 381.09375 307.046875 373.230469 307.046875 " fill-opacity="1" fill-rule="nonzero"/><path fill="#99b9ff" d="M 264.957031 200.847656 L 259.523438 200.847656 C 259.148438 200.847656 258.847656 200.542969 258.847656 200.167969 C 258.847656 199.792969 259.148438 199.488281 259.523438 199.488281 L 264.957031 199.488281 C 265.332031 199.488281 265.636719 199.792969 265.636719 200.167969 C 265.636719 200.542969 265.332031 200.847656 264.957031 200.847656 Z M 275.824219 200.847656 L 270.386719 200.847656 C 270.015625 200.847656 269.710938 200.542969 269.710938 200.167969 C 269.710938 199.792969 270.015625 199.488281 270.386719 199.488281 L 275.824219 199.488281 C 276.195312 199.488281 276.5 199.792969 276.5 200.167969 C 276.5 200.542969 276.195312 200.847656 275.824219 200.847656 Z M 286.6875 200.847656 L 281.253906 200.847656 C 280.878906 200.847656 280.574219 200.542969 280.574219 200.167969 C 280.574219 199.792969 280.878906 199.488281 281.253906 199.488281 L 286.6875 199.488281 C 287.0625 199.488281 287.367188 199.792969 287.367188 200.167969 C 287.367188 200.542969 287.0625 200.847656 286.6875 200.847656 Z M 297.550781 200.847656 L 292.121094 200.847656 C 291.746094 200.847656 291.4375 200.542969 291.4375 200.167969 C 291.4375 199.792969 291.746094 199.488281 292.121094 199.488281 L 297.550781 199.488281 C 297.925781 199.488281 298.230469 199.792969 298.230469 200.167969 C 298.230469 200.542969 297.925781 200.847656 297.550781 200.847656 Z M 308.417969 200.847656 L 302.984375 200.847656 C 302.609375 200.847656 302.308594 200.542969 302.308594 200.167969 C 302.308594 199.792969 302.609375 199.488281 302.984375 199.488281 L 308.417969 199.488281 C 308.792969 199.488281 309.097656 199.792969 309.097656 200.167969 C 309.097656 200.542969 308.792969 200.847656 308.417969 200.847656 Z M 319.28125 200.847656 L 313.847656 200.847656 C 313.476562 200.847656 313.171875 200.542969 313.171875 200.167969 C 313.171875 199.792969 313.476562 199.488281 313.847656 199.488281 L 319.28125 199.488281 C 319.660156 199.488281 319.960938 199.792969 319.960938 200.167969 C 319.960938 200.542969 319.660156 200.847656 319.28125 200.847656 Z M 330.148438 200.847656 L 324.714844 200.847656 C 324.339844 200.847656 324.035156 200.542969 324.035156 200.167969 C 324.035156 199.792969 324.339844 199.488281 324.714844 199.488281 L 330.148438 199.488281 C 330.523438 199.488281 330.828125 199.792969 330.828125 200.167969 C 330.828125 200.542969 330.523438 200.847656 330.148438 200.847656 Z M 341.011719 200.847656 L 335.582031 200.847656 C 335.203125 200.847656 334.902344 200.542969 334.902344 200.167969 C 334.902344 199.792969 335.203125 199.488281 335.582031 199.488281 L 341.011719 199.488281 C 341.386719 199.488281 341.691406 199.792969 341.691406 200.167969 C 341.691406 200.542969 341.386719 200.847656 341.011719 200.847656 Z M 351.878906 200.847656 L 346.445312 200.847656 C 346.070312 200.847656 345.765625 200.542969 345.765625 200.167969 C 345.765625 199.792969 346.070312 199.488281 346.445312 199.488281 L 351.878906 199.488281 C 352.253906 199.488281 352.558594 199.792969 352.558594 200.167969 C 352.558594 200.542969 352.253906 200.847656 351.878906 200.847656 Z M 362.742188 200.847656 L 357.308594 200.847656 C 356.9375 200.847656 356.632812 200.542969 356.632812 200.167969 C 356.632812 199.792969 356.9375 199.488281 357.308594 199.488281 L 362.742188 199.488281 C 363.121094 199.488281 363.421875 199.792969 363.421875 200.167969 C 363.421875 200.542969 363.121094 200.847656 362.742188 200.847656 Z M 373.609375 200.855469 C 373.601562 200.855469 373.589844 200.855469 373.582031 200.855469 C 373.449219 200.851562 373.320312 200.847656 373.1875 200.847656 L 368.175781 200.847656 C 367.800781 200.847656 367.496094 200.542969 367.496094 200.167969 C 367.496094 199.792969 367.800781 199.488281 368.175781 199.488281 L 373.1875 199.488281 C 373.339844 199.488281 373.484375 199.492188 373.636719 199.5 C 374.011719 199.515625 374.300781 199.832031 374.285156 200.203125 C 374.273438 200.570312 373.96875 200.855469 373.609375 200.855469 Z M 248.882812 202.140625 C 248.644531 202.140625 248.417969 202.015625 248.292969 201.792969 C 248.109375 201.46875 248.222656 201.054688 248.546875 200.871094 C 250.148438 199.96875 251.96875 199.488281 253.8125 199.488281 L 254.089844 199.488281 C 254.464844 199.488281 254.769531 199.792969 254.769531 200.167969 C 254.769531 200.542969 254.464844 200.847656 254.089844 200.847656 L 253.8125 200.847656 C 252.199219 200.847656 250.613281 201.261719 249.21875 202.050781 C 249.113281 202.113281 249 202.140625 248.882812 202.140625 Z M 382.242188 206.546875 C 381.988281 206.546875 381.746094 206.402344 381.632812 206.160156 C 380.894531 204.632812 379.757812 203.328125 378.339844 202.390625 C 378.027344 202.183594 377.941406 201.765625 378.148438 201.449219 C 378.351562 201.136719 378.773438 201.050781 379.089844 201.257812 C 380.710938 202.328125 382.015625 203.824219 382.855469 205.574219 C 383.019531 205.910156 382.875 206.316406 382.535156 206.476562 C 382.445312 206.523438 382.34375 206.546875 382.242188 206.546875 Z M 243.773438 211.132812 C 243.402344 211.132812 243.09375 210.828125 243.09375 210.453125 L 243.09375 210.210938 C 243.09375 208.351562 243.578125 206.519531 244.492188 204.914062 C 244.679688 204.585938 245.09375 204.472656 245.421875 204.660156 C 245.746094 204.84375 245.859375 205.257812 245.675781 205.585938 C 244.875 206.984375 244.453125 208.585938 244.453125 210.210938 L 244.453125 210.453125 C 244.453125 210.828125 244.148438 211.132812 243.773438 211.132812 Z M 383.226562 217.261719 C 382.851562 217.261719 382.550781 216.957031 382.550781 216.582031 L 382.550781 211.148438 C 382.550781 210.773438 382.851562 210.472656 383.226562 210.472656 C 383.601562 210.472656 383.90625 210.773438 383.90625 211.148438 L 383.90625 216.582031 C 383.90625 216.957031 383.601562 217.261719 383.226562 217.261719 Z M 243.773438 221.996094 C 243.402344 221.996094 243.09375 221.691406 243.09375 221.316406 L 243.09375 215.886719 C 243.09375 215.511719 243.402344 215.207031 243.773438 215.207031 C 244.148438 215.207031 244.453125 215.511719 244.453125 215.886719 L 244.453125 221.316406 C 244.453125 221.691406 244.148438 221.996094 243.773438 221.996094 Z M 383.226562 228.128906 C 382.851562 228.128906 382.550781 227.824219 382.550781 227.445312 L 382.550781 222.015625 C 382.550781 221.640625 382.851562 221.335938 383.226562 221.335938 C 383.601562 221.335938 383.90625 221.640625 383.90625 222.015625 L 383.90625 227.445312 C 383.90625 227.824219 383.601562 228.128906 383.226562 228.128906 Z M 243.773438 232.863281 C 243.402344 232.863281 243.09375 232.558594 243.09375 232.183594 L 243.09375 226.75 C 243.09375 226.375 243.402344 226.070312 243.773438 226.070312 C 244.148438 226.070312 244.453125 226.375 244.453125 226.75 L 244.453125 232.183594 C 244.453125 232.558594 244.148438 232.863281 243.773438 232.863281 Z M 383.226562 238.992188 C 382.851562 238.992188 382.550781 238.6875 382.550781 238.3125 L 382.550781 232.882812 C 382.550781 232.507812 382.851562 232.203125 383.226562 232.203125 C 383.601562 232.203125 383.90625 232.507812 383.90625 232.882812 L 383.90625 238.3125 C 383.90625 238.6875 383.601562 238.992188 383.226562 238.992188 Z M 243.773438 243.726562 C 243.402344 243.726562 243.09375 243.421875 243.09375 243.046875 L 243.09375 237.617188 C 243.09375 237.242188 243.402344 236.9375 243.773438 236.9375 C 244.148438 236.9375 244.453125 237.242188 244.453125 237.617188 L 244.453125 243.046875 C 244.453125 243.421875 244.148438 243.726562 243.773438 243.726562 Z M 383.226562 249.855469 C 382.851562 249.855469 382.550781 249.554688 382.550781 249.179688 L 382.550781 243.746094 C 382.550781 243.371094 382.851562 243.066406 383.226562 243.066406 C 383.601562 243.066406 383.90625 243.371094 383.90625 243.746094 L 383.90625 249.179688 C 383.90625 249.554688 383.601562 249.855469 383.226562 249.855469 Z M 243.773438 254.59375 C 243.402344 254.59375 243.09375 254.289062 243.09375 253.914062 L 243.09375 248.480469 C 243.09375 248.105469 243.402344 247.800781 243.773438 247.800781 C 244.148438 247.800781 244.453125 248.105469 244.453125 248.480469 L 244.453125 253.914062 C 244.453125 254.289062 244.148438 254.59375 243.773438 254.59375 Z M 383.226562 260.722656 C 382.851562 260.722656 382.550781 260.417969 382.550781 260.042969 L 382.550781 254.609375 C 382.550781 254.234375 382.851562 253.933594 383.226562 253.933594 C 383.601562 253.933594 383.90625 254.234375 383.90625 254.609375 L 383.90625 260.042969 C 383.90625 260.417969 383.601562 260.722656 383.226562 260.722656 Z M 243.773438 265.457031 C 243.402344 265.457031 243.09375 265.152344 243.09375 264.777344 L 243.09375 259.34375 C 243.09375 258.972656 243.402344 258.667969 243.773438 258.667969 C 244.148438 258.667969 244.453125 258.972656 244.453125 259.34375 L 244.453125 264.777344 C 244.453125 265.152344 244.148438 265.457031 243.773438 265.457031 Z M 383.226562 271.589844 C 382.851562 271.589844 382.550781 271.28125 382.550781 270.90625 L 382.550781 265.476562 C 382.550781 265.101562 382.851562 264.796875 383.226562 264.796875 C 383.601562 264.796875 383.90625 265.101562 383.90625 265.476562 L 383.90625 270.90625 C 383.90625 271.28125 383.601562 271.589844 383.226562 271.589844 Z M 243.773438 276.324219 C 243.402344 276.324219 243.09375 276.019531 243.09375 275.644531 L 243.09375 270.210938 C 243.09375 269.835938 243.402344 269.53125 243.773438 269.53125 C 244.148438 269.53125 244.453125 269.835938 244.453125 270.210938 L 244.453125 275.644531 C 244.453125 276.019531 244.148438 276.324219 243.773438 276.324219 Z M 383.226562 282.453125 C 382.851562 282.453125 382.550781 282.148438 382.550781 281.773438 L 382.550781 276.34375 C 382.550781 275.96875 382.851562 275.660156 383.226562 275.660156 C 383.601562 275.660156 383.90625 275.96875 383.90625 276.34375 L 383.90625 281.773438 C 383.90625 282.148438 383.601562 282.453125 383.226562 282.453125 Z M 243.773438 287.1875 C 243.402344 287.1875 243.09375 286.882812 243.09375 286.507812 L 243.09375 281.078125 C 243.09375 280.703125 243.402344 280.398438 243.773438 280.398438 C 244.148438 280.398438 244.453125 280.703125 244.453125 281.078125 L 244.453125 286.507812 C 244.453125 286.882812 244.148438 287.1875 243.773438 287.1875 Z M 383.226562 293.300781 C 382.851562 293.300781 382.550781 293.015625 382.550781 292.640625 L 382.550781 287.207031 C 382.550781 286.832031 382.851562 286.527344 383.226562 286.527344 C 383.601562 286.527344 383.90625 286.832031 383.90625 287.207031 L 383.90625 292.605469 C 383.90625 292.980469 383.601562 293.300781 383.226562 293.300781 Z M 244.882812 297.875 C 244.636719 297.875 244.398438 297.742188 244.28125 297.507812 C 243.503906 296.003906 243.09375 294.308594 243.09375 292.605469 L 243.09375 291.941406 C 243.09375 291.566406 243.402344 291.261719 243.773438 291.261719 C 244.148438 291.261719 244.453125 291.566406 244.453125 291.941406 L 244.453125 292.605469 C 244.453125 294.113281 244.800781 295.554688 245.484375 296.882812 C 245.65625 297.21875 245.527344 297.628906 245.195312 297.800781 C 245.09375 297.851562 244.988281 297.875 244.882812 297.875 Z M 377.875 302.164062 C 377.632812 302.164062 377.398438 302.035156 377.273438 301.804688 C 377.101562 301.472656 377.226562 301.0625 377.5625 300.886719 C 379.058594 300.09375 380.316406 298.90625 381.199219 297.453125 C 381.394531 297.128906 381.8125 297.03125 382.132812 297.222656 C 382.453125 297.417969 382.554688 297.835938 382.363281 298.15625 C 381.351562 299.820312 379.910156 301.175781 378.195312 302.085938 C 378.09375 302.140625 377.984375 302.164062 377.875 302.164062 Z M 253.667969 303.324219 C 253.667969 303.324219 253.664062 303.324219 253.660156 303.324219 C 251.710938 303.296875 249.8125 302.742188 248.160156 301.714844 C 247.84375 301.519531 247.746094 301.097656 247.945312 300.78125 C 248.140625 300.460938 248.558594 300.367188 248.878906 300.5625 C 250.320312 301.457031 251.980469 301.945312 253.679688 301.96875 C 254.054688 301.972656 254.351562 302.28125 254.351562 302.65625 C 254.34375 303.027344 254.039062 303.324219 253.667969 303.324219 Z M 264.535156 303.328125 L 259.101562 303.328125 C 258.730469 303.328125 258.421875 303.019531 258.421875 302.648438 C 258.421875 302.273438 258.730469 301.96875 259.101562 301.96875 L 264.535156 301.96875 C 264.910156 301.96875 265.214844 302.273438 265.214844 302.648438 C 265.214844 303.019531 264.910156 303.328125 264.535156 303.328125 Z M 275.402344 303.328125 L 269.96875 303.328125 C 269.589844 303.328125 269.289062 303.019531 269.289062 302.648438 C 269.289062 302.273438 269.589844 301.96875 269.96875 301.96875 L 275.402344 301.96875 C 275.773438 301.96875 276.078125 302.273438 276.078125 302.648438 C 276.078125 303.019531 275.773438 303.328125 275.402344 303.328125 Z M 286.265625 303.328125 L 280.832031 303.328125 C 280.457031 303.328125 280.152344 303.019531 280.152344 302.648438 C 280.152344 302.273438 280.457031 301.96875 280.832031 301.96875 L 286.265625 301.96875 C 286.640625 301.96875 286.945312 302.273438 286.945312 302.648438 C 286.945312 303.019531 286.640625 303.328125 286.265625 303.328125 Z M 297.128906 303.328125 L 291.699219 303.328125 C 291.324219 303.328125 291.023438 303.019531 291.023438 302.648438 C 291.023438 302.273438 291.324219 301.96875 291.699219 301.96875 L 297.128906 301.96875 C 297.507812 301.96875 297.808594 302.273438 297.808594 302.648438 C 297.808594 303.019531 297.507812 303.328125 297.128906 303.328125 Z M 307.996094 303.328125 L 302.5625 303.328125 C 302.1875 303.328125 301.882812 303.019531 301.882812 302.648438 C 301.882812 302.273438 302.1875 301.96875 302.5625 301.96875 L 307.996094 301.96875 C 308.371094 301.96875 308.675781 302.273438 308.675781 302.648438 C 308.675781 303.019531 308.371094 303.328125 307.996094 303.328125 Z M 318.863281 303.328125 L 313.429688 303.328125 C 313.054688 303.328125 312.75 303.019531 312.75 302.648438 C 312.75 302.273438 313.054688 301.96875 313.429688 301.96875 L 318.863281 301.96875 C 319.234375 301.96875 319.539062 302.273438 319.539062 302.648438 C 319.539062 303.019531 319.234375 303.328125 318.863281 303.328125 Z M 329.726562 303.328125 L 324.292969 303.328125 C 323.917969 303.328125 323.613281 303.019531 323.613281 302.648438 C 323.613281 302.273438 323.917969 301.96875 324.292969 301.96875 L 329.726562 301.96875 C 330.101562 301.96875 330.402344 302.273438 330.402344 302.648438 C 330.402344 303.019531 330.101562 303.328125 329.726562 303.328125 Z M 340.589844 303.328125 L 335.160156 303.328125 C 334.785156 303.328125 334.480469 303.019531 334.480469 302.648438 C 334.480469 302.273438 334.785156 301.96875 335.160156 301.96875 L 340.589844 301.96875 C 340.964844 301.96875 341.269531 302.273438 341.269531 302.648438 C 341.269531 303.019531 340.964844 303.328125 340.589844 303.328125 Z M 351.453125 303.328125 L 346.023438 303.328125 C 345.648438 303.328125 345.34375 303.019531 345.34375 302.648438 C 345.34375 302.273438 345.648438 301.96875 346.023438 301.96875 L 351.453125 301.96875 C 351.832031 301.96875 352.136719 302.273438 352.136719 302.648438 C 352.136719 303.019531 351.832031 303.328125 351.453125 303.328125 Z M 362.324219 303.328125 L 356.890625 303.328125 C 356.515625 303.328125 356.210938 303.019531 356.210938 302.648438 C 356.210938 302.273438 356.515625 301.96875 356.890625 301.96875 L 362.324219 301.96875 C 362.695312 301.96875 363 302.273438 363 302.648438 C 363 303.019531 362.695312 303.328125 362.324219 303.328125 Z M 373.1875 303.328125 L 367.753906 303.328125 C 367.378906 303.328125 367.074219 303.019531 367.074219 302.648438 C 367.074219 302.273438 367.378906 301.96875 367.753906 301.96875 L 373.1875 301.96875 C 373.5625 301.96875 373.863281 302.273438 373.863281 302.648438 C 373.863281 303.019531 373.5625 303.328125 373.1875 303.328125 " fill-opacity="1" fill-rule="nonzero"/><path fill="#caddff" d="M 383.773438 261.957031 L 362.464844 261.957031 C 357.960938 261.957031 354.3125 258.308594 354.3125 253.808594 L 354.3125 248.835938 C 354.3125 244.332031 357.960938 240.683594 362.464844 240.683594 L 383.773438 240.683594 C 388.277344 240.683594 391.925781 244.332031 391.925781 248.835938 L 391.925781 253.808594 C 391.925781 258.308594 388.277344 261.957031 383.773438 261.957031 " fill-opacity="1" fill-rule="nonzero"/><path fill="#000000" d="M 362.464844 241.363281 C 358.34375 241.363281 354.988281 244.714844 354.988281 248.835938 L 354.988281 253.808594 C 354.988281 257.929688 358.34375 261.28125 362.464844 261.28125 L 383.777344 261.28125 C 387.894531 261.28125 391.246094 257.929688 391.246094 253.808594 L 391.246094 248.835938 C 391.246094 244.714844 387.894531 241.363281 383.777344 241.363281 Z M 383.777344 262.636719 L 362.464844 262.636719 C 357.59375 262.636719 353.632812 258.679688 353.632812 253.808594 L 353.632812 248.835938 C 353.632812 243.964844 357.59375 240.003906 362.464844 240.003906 L 383.777344 240.003906 C 388.644531 240.003906 392.605469 243.964844 392.605469 248.835938 L 392.605469 253.808594 C 392.605469 258.679688 388.644531 262.636719 383.777344 262.636719 " fill-opacity="1" fill-rule="nonzero"/><path fill="#000000" d="M 366.59375 251.324219 C 366.59375 253.675781 364.761719 255.578125 362.5 255.578125 C 360.238281 255.578125 358.410156 253.675781 358.410156 251.324219 C 358.410156 248.972656 360.238281 247.066406 362.5 247.066406 C 364.761719 247.066406 366.59375 248.972656 366.59375 251.324219 " fill-opacity="1" fill-rule="nonzero"/><path fill="#99b9ff" d="M 314.019531 270.898438 C 313.875 270.898438 313.726562 270.851562 313.605469 270.753906 C 313.308594 270.523438 313.253906 270.097656 313.484375 269.800781 L 323.613281 256.75 C 323.84375 256.449219 324.269531 256.398438 324.566406 256.625 C 324.863281 256.855469 324.917969 257.28125 324.6875 257.578125 L 314.554688 270.636719 C 314.421875 270.808594 314.222656 270.898438 314.019531 270.898438 " fill-opacity="1" fill-rule="nonzero"/><path fill="#99b9ff" d="M 325.992188 255.472656 C 325.847656 255.472656 325.699219 255.425781 325.578125 255.328125 C 325.277344 255.097656 325.226562 254.671875 325.457031 254.375 L 337.578125 238.75 C 337.808594 238.457031 338.238281 238.398438 338.53125 238.628906 C 338.828125 238.859375 338.882812 239.285156 338.652344 239.582031 L 326.527344 255.207031 C 326.394531 255.378906 326.195312 255.472656 325.992188 255.472656 " fill-opacity="1" fill-rule="nonzero"/><path fill="#99b9ff" d="M 339.9375 237.496094 C 339.792969 237.496094 339.644531 237.449219 339.523438 237.355469 C 339.222656 237.125 339.171875 236.699219 339.398438 236.402344 L 343.128906 231.597656 C 343.363281 231.300781 343.789062 231.246094 344.082031 231.476562 C 344.378906 231.703125 344.433594 232.132812 344.203125 232.429688 L 340.476562 237.234375 C 340.339844 237.40625 340.140625 237.496094 339.9375 237.496094 " fill-opacity="1" fill-rule="nonzero"/><path fill="#99b9ff" d="M 273.847656 269.566406 C 273.703125 269.566406 273.554688 269.519531 273.429688 269.425781 C 273.132812 269.195312 273.082031 268.769531 273.3125 268.472656 L 280.398438 259.339844 C 280.628906 259.042969 281.054688 258.988281 281.351562 259.21875 C 281.648438 259.449219 281.703125 259.875 281.46875 260.171875 L 274.386719 269.304688 C 274.25 269.476562 274.050781 269.566406 273.847656 269.566406 " fill-opacity="1" fill-rule="nonzero"/><path fill="#99b9ff" d="M 282.320312 258.648438 C 282.175781 258.648438 282.027344 258.601562 281.90625 258.503906 C 281.609375 258.273438 281.558594 257.847656 281.785156 257.550781 L 290.097656 246.839844 C 290.324219 246.542969 290.753906 246.492188 291.050781 246.71875 C 291.34375 246.949219 291.398438 247.378906 291.171875 247.675781 L 282.859375 258.382812 C 282.722656 258.554688 282.523438 258.648438 282.320312 258.648438 " fill-opacity="1" fill-rule="nonzero"/><path fill="#99b9ff" d="M 293.292969 244.507812 C 293.148438 244.507812 293 244.460938 292.875 244.367188 C 292.578125 244.136719 292.527344 243.710938 292.753906 243.414062 L 301.519531 232.121094 C 301.75 231.824219 302.175781 231.773438 302.472656 232 C 302.769531 232.230469 302.820312 232.65625 302.589844 232.953125 L 293.828125 244.246094 C 293.695312 244.417969 293.496094 244.507812 293.292969 244.507812 " fill-opacity="1" fill-rule="nonzero"/><path fill="#99b9ff" d="M 307.386719 296.007812 C 307.242188 296.007812 307.09375 295.960938 306.972656 295.867188 C 306.675781 295.632812 306.621094 295.207031 306.851562 294.914062 L 319.59375 278.492188 C 319.824219 278.195312 320.253906 278.140625 320.546875 278.371094 C 320.84375 278.597656 320.894531 279.027344 320.667969 279.324219 L 307.925781 295.746094 C 307.789062 295.917969 307.589844 296.007812 307.386719 296.007812 " fill-opacity="1" fill-rule="nonzero"/><path fill="#99b9ff" d="M 321.484375 277.839844 C 321.339844 277.839844 321.195312 277.792969 321.070312 277.695312 C 320.777344 277.464844 320.71875 277.039062 320.949219 276.746094 L 331.835938 262.714844 C 332.066406 262.417969 332.496094 262.363281 332.789062 262.59375 C 333.085938 262.824219 333.140625 263.25 332.910156 263.546875 L 322.023438 277.578125 C 321.890625 277.75 321.691406 277.839844 321.484375 277.839844 " fill-opacity="1" fill-rule="nonzero"/><path fill="#ffffff" d="M 318.964844 171.984375 C 327.15625 188.242188 320.640625 208.074219 304.414062 216.277344 C 288.1875 224.480469 268.394531 217.953125 260.207031 201.695312 C 252.015625 185.441406 258.535156 165.605469 274.757812 157.402344 C 290.984375 149.199219 310.777344 155.722656 318.964844 171.984375 " fill-opacity="1" fill-rule="nonzero"/><path fill="#000000" d="M 289.554688 154.53125 C 284.578125 154.53125 279.636719 155.695312 275.0625 158.007812 C 259.199219 166.03125 252.804688 185.492188 260.8125 201.390625 C 264.695312 209.097656 271.339844 214.828125 279.527344 217.523438 C 287.699219 220.214844 296.429688 219.554688 304.105469 215.671875 C 319.972656 207.648438 326.367188 188.1875 318.359375 172.289062 C 314.476562 164.582031 307.832031 158.851562 299.644531 156.15625 C 296.339844 155.070312 292.9375 154.53125 289.554688 154.53125 Z M 289.621094 220.511719 C 286.089844 220.511719 282.550781 219.945312 279.101562 218.8125 C 270.570312 216.003906 263.644531 210.035156 259.597656 202 C 251.253906 185.4375 257.917969 165.15625 274.453125 156.796875 C 282.453125 152.75 291.554688 152.0625 300.070312 154.871094 C 308.601562 157.675781 315.527344 163.648438 319.574219 171.679688 C 327.917969 188.246094 321.253906 208.523438 304.722656 216.882812 C 299.957031 219.292969 294.804688 220.511719 289.621094 220.511719 " fill-opacity="1" fill-rule="nonzero"/><path fill="#99b9ff" d="M 316.136719 173.414062 C 323.535156 188.109375 317.648438 206.027344 302.988281 213.441406 C 288.324219 220.855469 270.4375 214.957031 263.039062 200.265625 C 255.636719 185.574219 261.527344 167.652344 276.1875 160.238281 C 290.847656 152.824219 308.734375 158.722656 316.136719 173.414062 " fill-opacity="1" fill-rule="nonzero"/><path fill="#ffffff" d="M 313.816406 174.585938 C 320.566406 187.996094 315.195312 204.351562 301.8125 211.113281 C 288.433594 217.882812 272.113281 212.496094 265.359375 199.09375 C 258.609375 185.6875 263.980469 169.328125 277.359375 162.566406 C 290.742188 155.796875 307.0625 161.179688 313.816406 174.585938 " fill-opacity="1" fill-rule="nonzero"/><path fill="#000000" d="M 289.5625 160.316406 C 285.476562 160.316406 281.417969 161.273438 277.667969 163.171875 C 264.640625 169.757812 259.394531 185.734375 265.96875 198.78125 C 269.152344 205.109375 274.609375 209.816406 281.328125 212.023438 C 288.039062 214.234375 295.203125 213.695312 301.507812 210.507812 C 314.53125 203.921875 319.78125 187.945312 313.207031 174.894531 C 310.019531 168.566406 304.5625 163.863281 297.847656 161.652344 C 295.132812 160.757812 292.335938 160.316406 289.5625 160.316406 Z M 289.613281 214.722656 C 286.691406 214.722656 283.757812 214.257812 280.902344 213.316406 C 273.839844 210.992188 268.105469 206.046875 264.753906 199.394531 C 257.84375 185.675781 263.363281 168.882812 277.054688 161.960938 C 283.683594 158.605469 291.214844 158.039062 298.269531 160.363281 C 305.335938 162.6875 311.070312 167.632812 314.421875 174.28125 C 321.332031 188 315.8125 204.796875 302.121094 211.71875 C 298.175781 213.714844 293.910156 214.722656 289.613281 214.722656 " fill-opacity="1" fill-rule="nonzero"/><path fill="#4e45ff" d="M 299.914062 192.394531 C 299.449219 193.625 298.445312 194.648438 296.898438 195.46875 L 291.421875 198.371094 L 286.71875 189.503906 L 292.605469 186.382812 C 295.652344 184.847656 297.964844 185.558594 299.527344 188.503906 C 300.25 189.871094 300.378906 191.164062 299.914062 192.394531 Z M 292.402344 176.726562 C 293.078125 177.996094 293.167969 179.210938 292.671875 180.363281 C 292.175781 181.519531 291.164062 182.5 289.628906 183.316406 L 284.796875 185.878906 L 280.570312 177.90625 L 285.363281 175.363281 C 287.054688 174.464844 288.464844 174.117188 289.59375 174.320312 C 290.722656 174.519531 291.660156 175.324219 292.402344 176.726562 Z M 300.023438 182.765625 C 298.699219 182.117188 297.234375 181.976562 295.628906 182.339844 C 296.589844 181.160156 297.136719 179.925781 297.273438 178.632812 C 297.410156 177.339844 297.164062 176.101562 296.535156 174.910156 C 295.296875 172.582031 293.601562 171.234375 291.441406 170.867188 C 289.660156 170.570312 287.617188 170.925781 285.308594 171.929688 L 283.339844 168.21875 L 281.257812 169.320312 L 283.199219 172.980469 L 280.425781 174.449219 L 278.484375 170.792969 L 276.40625 171.894531 L 278.34375 175.554688 L 272.003906 178.949219 L 273.851562 182.429688 L 276.757812 180.886719 L 286.867188 199.953125 L 283.902344 201.523438 L 285.742188 204.992188 L 292.15625 201.589844 L 294.238281 205.519531 L 296.316406 204.417969 L 294.199219 200.421875 L 296.972656 198.949219 L 299.089844 202.945312 L 301.171875 201.839844 L 299.039062 197.824219 C 301.445312 196.386719 303.042969 194.714844 303.816406 192.804688 C 304.6875 190.667969 304.472656 188.378906 303.179688 185.945312 C 302.402344 184.46875 301.347656 183.410156 300.023438 182.765625 " fill-opacity="1" fill-rule="nonzero"/><path fill="#ffffff" d="M 384.617188 171.078125 C 374.960938 180.972656 359.109375 181.1875 349.210938 171.554688 C 339.316406 161.925781 339.121094 146.101562 348.777344 136.207031 C 358.433594 126.3125 374.285156 126.101562 384.179688 135.730469 C 394.078125 145.359375 394.273438 161.1875 384.617188 171.078125 " fill-opacity="1" fill-rule="nonzero"/><path fill="#000000" d="M 366.734375 129.335938 C 360.378906 129.335938 354.039062 131.789062 349.265625 136.679688 C 344.714844 141.339844 342.257812 147.484375 342.34375 153.984375 C 342.425781 160.476562 345.035156 166.542969 349.683594 171.070312 C 359.300781 180.425781 374.75 180.214844 384.132812 170.605469 C 388.679688 165.949219 391.136719 159.800781 391.050781 153.300781 C 390.96875 146.808594 388.363281 140.742188 383.707031 136.214844 C 378.988281 131.621094 372.855469 129.335938 366.734375 129.335938 Z M 366.664062 179.308594 C 360.195312 179.308594 353.722656 176.894531 348.738281 172.042969 C 343.824219 167.261719 341.074219 160.855469 340.984375 154.003906 C 340.894531 147.140625 343.492188 140.648438 348.292969 135.734375 C 358.191406 125.589844 374.507812 125.367188 384.65625 135.242188 C 389.570312 140.023438 392.324219 146.429688 392.410156 153.28125 C 392.5 160.144531 389.902344 166.636719 385.101562 171.554688 C 380.0625 176.714844 373.367188 179.308594 366.664062 179.308594 " fill-opacity="1" fill-rule="nonzero"/><path fill="#99b9ff" d="M 382.890625 169.398438 C 374.164062 178.339844 359.839844 178.535156 350.898438 169.832031 C 341.953125 161.128906 341.777344 146.828125 350.503906 137.886719 C 359.230469 128.945312 373.554688 128.753906 382.496094 137.457031 C 391.441406 146.15625 391.617188 160.460938 382.890625 169.398438 " fill-opacity="1" fill-rule="nonzero"/><path fill="#ffffff" d="M 381.472656 168.023438 C 373.507812 176.179688 360.441406 176.355469 352.277344 168.417969 C 344.117188 160.472656 343.953125 147.421875 351.917969 139.265625 C 359.882812 131.105469 372.953125 130.933594 381.113281 138.875 C 389.277344 146.816406 389.4375 159.863281 381.472656 168.023438 " fill-opacity="1" fill-rule="nonzero"/><path fill="#000000" d="M 366.726562 133.71875 C 361.519531 133.71875 356.320312 135.730469 352.40625 139.742188 C 348.679688 143.558594 346.664062 148.59375 346.734375 153.925781 C 346.800781 159.246094 348.941406 164.21875 352.753906 167.929688 C 360.628906 175.59375 373.296875 175.425781 380.988281 167.546875 C 384.71875 163.726562 386.730469 158.691406 386.664062 153.359375 C 386.59375 148.042969 384.457031 143.070312 380.640625 139.359375 C 376.773438 135.59375 371.746094 133.71875 366.726562 133.71875 Z M 366.671875 174.925781 C 361.308594 174.925781 355.9375 172.921875 351.808594 168.902344 C 347.730469 164.9375 345.449219 159.625 345.375 153.941406 C 345.300781 148.25 347.453125 142.867188 351.4375 138.792969 C 359.648438 130.378906 373.171875 130.195312 381.589844 138.386719 C 385.664062 142.351562 387.949219 147.660156 388.019531 153.34375 C 388.09375 159.035156 385.941406 164.417969 381.960938 168.496094 L 381.476562 168.023438 L 381.960938 168.496094 C 377.785156 172.777344 372.226562 174.925781 366.671875 174.925781 " fill-opacity="1" fill-rule="nonzero"/><path fill="#4e45ff" d="M 365.253906 162.429688 C 364.261719 162.402344 363.277344 161.929688 362.304688 161.023438 L 358.867188 157.808594 L 364.078125 152.238281 L 367.773438 155.699219 C 369.625 157.511719 369.6875 159.339844 367.953125 161.191406 C 367.152344 162.050781 366.253906 162.460938 365.253906 162.429688 Z M 374.660156 153.171875 C 373.910156 153.96875 373.058594 154.335938 372.109375 154.261719 C 371.160156 154.191406 370.203125 153.703125 369.242188 152.804688 L 366.207031 149.964844 L 370.886719 144.960938 L 373.898438 147.777344 C 374.960938 148.769531 375.558594 149.699219 375.691406 150.558594 C 375.828125 151.417969 375.484375 152.289062 374.660156 153.171875 Z M 372.203125 160.132812 C 372.335938 159.023438 372.078125 157.933594 371.417969 156.871094 C 372.503906 157.269531 373.523438 157.359375 374.488281 157.136719 C 375.449219 156.917969 376.277344 156.4375 376.976562 155.6875 C 378.347656 154.226562 378.894531 152.675781 378.625 151.035156 C 378.402344 149.683594 377.640625 148.304688 376.351562 146.894531 L 378.53125 144.5625 L 377.226562 143.339844 L 375.078125 145.636719 L 373.335938 144.007812 L 375.484375 141.710938 L 374.179688 140.488281 L 372.03125 142.785156 L 368.027344 139.066406 L 365.984375 141.253906 L 367.804688 142.960938 L 356.609375 154.925781 L 354.746094 153.183594 L 352.710938 155.359375 L 356.734375 159.128906 L 354.429688 161.59375 L 355.734375 162.816406 L 358.082031 160.308594 L 359.820312 161.9375 L 357.476562 164.445312 L 358.78125 165.664062 L 361.140625 163.144531 C 362.765625 164.515625 364.359375 165.25 365.925781 165.339844 C 367.671875 165.433594 369.265625 164.71875 370.695312 163.1875 C 371.5625 162.261719 372.066406 161.242188 372.203125 160.132812 " fill-opacity="1" fill-rule="nonzero"/><path fill="#000000" d="M 155.8125 65.953125 C 155.632812 65.953125 155.453125 65.882812 155.320312 65.746094 C 155.0625 65.476562 155.070312 65.046875 155.34375 64.785156 C 155.457031 64.675781 167.25 53.558594 190.058594 45.867188 C 190.417969 45.746094 190.800781 45.9375 190.921875 46.292969 C 191.039062 46.648438 190.847656 47.035156 190.492188 47.152344 C 167.96875 54.753906 156.394531 65.660156 156.28125 65.765625 C 156.148438 65.890625 155.980469 65.953125 155.8125 65.953125 " fill-opacity="1" fill-rule="nonzero"/><path fill="#000000" d="M 128.246094 65.121094 C 128.03125 65.121094 127.820312 65.019531 127.6875 64.832031 C 127.472656 64.523438 127.550781 64.097656 127.855469 63.886719 C 127.964844 63.8125 138.765625 56.320312 156.707031 48.410156 C 173.257812 41.105469 199.460938 31.933594 230.292969 29.683594 C 230.667969 29.652344 230.992188 29.9375 231.023438 30.3125 C 231.046875 30.6875 230.769531 31.011719 230.394531 31.039062 C 171.753906 35.3125 129.058594 64.703125 128.632812 65 C 128.515625 65.082031 128.378906 65.121094 128.246094 65.121094 " fill-opacity="1" fill-rule="nonzero"/><path fill="#000000" d="M 49.90625 260.8125 C 49.648438 260.8125 49.402344 260.664062 49.289062 260.414062 C 34.917969 228.859375 34.234375 199.421875 36.191406 180.285156 C 38.316406 159.539062 43.921875 146.054688 43.976562 145.921875 C 44.121094 145.578125 44.519531 145.414062 44.867188 145.558594 C 45.210938 145.703125 45.375 146.101562 45.230469 146.445312 C 45.171875 146.582031 39.632812 159.914062 37.539062 180.476562 C 35.605469 199.433594 36.289062 228.597656 50.523438 259.851562 C 50.679688 260.191406 50.527344 260.59375 50.1875 260.75 C 50.097656 260.792969 50 260.8125 49.90625 260.8125 " fill-opacity="1" fill-rule="nonzero"/><path fill="#000000" d="M 75.832031 267.304688 C 75.613281 267.304688 75.394531 267.199219 75.265625 267 C 73.683594 264.597656 72.148438 262.136719 70.707031 259.695312 C 70.515625 259.371094 70.621094 258.957031 70.945312 258.761719 C 71.269531 258.574219 71.6875 258.683594 71.875 259.003906 C 73.308594 261.429688 74.832031 263.867188 76.398438 266.253906 C 76.605469 266.566406 76.519531 266.988281 76.207031 267.191406 C 76.089844 267.269531 75.960938 267.304688 75.832031 267.304688 " fill-opacity="1" fill-rule="nonzero"/><path fill="#000000" d="M 64.046875 246.367188 C 63.792969 246.367188 63.546875 246.222656 63.433594 245.976562 C 56.777344 231.859375 52.414062 217.296875 50.460938 202.691406 C 50.410156 202.316406 50.671875 201.976562 51.042969 201.925781 C 51.414062 201.871094 51.757812 202.140625 51.808594 202.511719 C 53.742188 216.976562 58.066406 231.40625 64.660156 245.394531 C 64.820312 245.738281 64.675781 246.140625 64.335938 246.300781 C 64.242188 246.34375 64.144531 246.367188 64.046875 246.367188 " fill-opacity="1" fill-rule="nonzero"/><path fill="#000000" d="M 50.144531 192.59375 C 49.785156 192.59375 49.488281 192.3125 49.46875 191.949219 C 48.707031 176.855469 50.992188 167.371094 51.015625 167.277344 C 51.105469 166.910156 51.472656 166.6875 51.835938 166.777344 C 52.199219 166.871094 52.421875 167.238281 52.332031 167.601562 C 52.308594 167.691406 50.074219 177.003906 50.824219 191.878906 C 50.84375 192.253906 50.554688 192.574219 50.179688 192.59375 C 50.167969 192.59375 50.15625 192.59375 50.144531 192.59375 " fill-opacity="1" fill-rule="nonzero"/><path fill="#000000" d="M 170.703125 76.605469 C 169.453125 76.605469 168.433594 77.625 168.433594 78.875 C 168.433594 80.128906 169.453125 81.152344 170.703125 81.152344 C 171.953125 81.152344 172.96875 80.128906 172.96875 78.875 C 172.96875 77.625 171.953125 76.605469 170.703125 76.605469 Z M 170.703125 82.507812 C 168.703125 82.507812 167.078125 80.882812 167.078125 78.875 C 167.078125 76.875 168.703125 75.246094 170.703125 75.246094 C 172.703125 75.246094 174.328125 76.875 174.328125 78.875 C 174.328125 80.882812 172.703125 82.507812 170.703125 82.507812 " fill-opacity="1" fill-rule="nonzero"/><path fill="#000000" d="M 103.9375 27.277344 C 103.765625 27.277344 103.589844 27.210938 103.457031 27.078125 L 101.558594 25.175781 C 101.292969 24.910156 101.292969 24.480469 101.558594 24.214844 C 101.824219 23.949219 102.253906 23.949219 102.519531 24.214844 L 104.417969 26.117188 C 104.683594 26.382812 104.683594 26.816406 104.417969 27.078125 C 104.285156 27.210938 104.113281 27.277344 103.9375 27.277344 " fill-opacity="1" fill-rule="nonzero"/><path fill="#000000" d="M 110.582031 33.929688 C 110.40625 33.929688 110.234375 33.867188 110.101562 33.734375 L 108.203125 31.832031 C 107.9375 31.566406 107.9375 31.136719 108.203125 30.871094 C 108.46875 30.605469 108.898438 30.605469 109.164062 30.871094 L 111.0625 32.773438 C 111.328125 33.039062 111.328125 33.46875 111.0625 33.734375 C 110.929688 33.867188 110.753906 33.929688 110.582031 33.929688 " fill-opacity="1" fill-rule="nonzero"/><path fill="#000000" d="M 102.039062 33.933594 C 101.867188 33.933594 101.691406 33.867188 101.558594 33.734375 C 101.292969 33.46875 101.292969 33.039062 101.558594 32.777344 L 103.457031 30.871094 C 103.722656 30.605469 104.152344 30.605469 104.417969 30.871094 C 104.683594 31.136719 104.683594 31.566406 104.417969 31.832031 L 102.519531 33.734375 C 102.386719 33.867188 102.214844 33.933594 102.039062 33.933594 " fill-opacity="1" fill-rule="nonzero"/><path fill="#000000" d="M 108.683594 27.277344 C 108.507812 27.277344 108.335938 27.210938 108.203125 27.078125 C 107.9375 26.816406 107.9375 26.382812 108.203125 26.117188 L 110.101562 24.21875 C 110.367188 23.949219 110.796875 23.949219 111.0625 24.214844 C 111.328125 24.480469 111.328125 24.910156 111.0625 25.175781 L 109.164062 27.078125 C 109.03125 27.210938 108.859375 27.277344 108.683594 27.277344 " fill-opacity="1" fill-rule="nonzero"/><path fill="#000000" d="M 262.238281 30.605469 C 262.066406 30.605469 261.890625 30.535156 261.761719 30.40625 L 260.152344 28.792969 C 259.886719 28.527344 259.886719 28.097656 260.152344 27.832031 C 260.417969 27.566406 260.847656 27.566406 261.117188 27.832031 L 262.722656 29.445312 C 262.988281 29.710938 262.988281 30.140625 262.71875 30.40625 C 262.585938 30.535156 262.414062 30.605469 262.238281 30.605469 " fill-opacity="1" fill-rule="nonzero"/><path fill="#000000" d="M 267.871094 36.242188 C 267.695312 36.242188 267.519531 36.175781 267.390625 36.042969 L 265.777344 34.433594 C 265.515625 34.164062 265.515625 33.734375 265.78125 33.472656 C 266.046875 33.203125 266.476562 33.203125 266.742188 33.472656 L 268.347656 35.082031 C 268.617188 35.347656 268.613281 35.777344 268.347656 36.042969 C 268.21875 36.175781 268.042969 36.242188 267.871094 36.242188 " fill-opacity="1" fill-rule="nonzero"/><path fill="#000000" d="M 260.632812 36.242188 C 260.457031 36.242188 260.289062 36.175781 260.152344 36.042969 C 259.890625 35.777344 259.886719 35.347656 260.152344 35.082031 L 261.761719 33.472656 C 262.027344 33.203125 262.453125 33.203125 262.71875 33.472656 C 262.988281 33.734375 262.988281 34.164062 262.722656 34.433594 L 261.113281 36.042969 C 260.980469 36.175781 260.808594 36.242188 260.632812 36.242188 " fill-opacity="1" fill-rule="nonzero"/><path fill="#000000" d="M 266.261719 30.605469 C 266.085938 30.605469 265.914062 30.535156 265.78125 30.40625 C 265.515625 30.140625 265.515625 29.710938 265.777344 29.445312 L 267.386719 27.832031 C 267.652344 27.566406 268.082031 27.566406 268.347656 27.832031 C 268.613281 28.097656 268.617188 28.527344 268.347656 28.792969 L 266.742188 30.40625 C 266.609375 30.535156 266.433594 30.605469 266.261719 30.605469 " fill-opacity="1" fill-rule="nonzero"/><path fill="#000000" d="M 297.9375 371.808594 C 297.035156 371.808594 296.300781 372.542969 296.300781 373.445312 C 296.300781 374.351562 297.035156 375.085938 297.9375 375.085938 C 298.839844 375.085938 299.570312 374.351562 299.570312 373.445312 C 299.570312 372.542969 298.839844 371.808594 297.9375 371.808594 Z M 297.9375 376.441406 C 296.285156 376.441406 294.941406 375.097656 294.941406 373.445312 C 294.941406 371.792969 296.285156 370.449219 297.9375 370.449219 C 299.585938 370.449219 300.929688 371.792969 300.929688 373.445312 C 300.929688 375.097656 299.585938 376.441406 297.9375 376.441406 " fill-opacity="1" fill-rule="nonzero"/><path fill="#000000" d="M 318.183594 356.410156 C 318.007812 356.410156 317.835938 356.34375 317.703125 356.210938 L 315.8125 354.324219 C 315.550781 354.058594 315.550781 353.625 315.816406 353.363281 C 316.082031 353.097656 316.511719 353.097656 316.777344 353.363281 L 318.664062 355.253906 C 318.929688 355.519531 318.929688 355.949219 318.664062 356.214844 C 318.527344 356.34375 318.355469 356.410156 318.183594 356.410156 " fill-opacity="1" fill-rule="nonzero"/><path fill="#000000" d="M 324.785156 363.027344 C 324.613281 363.027344 324.4375 362.960938 324.308594 362.828125 L 322.421875 360.9375 C 322.15625 360.671875 322.15625 360.242188 322.421875 359.980469 C 322.6875 359.714844 323.117188 359.714844 323.378906 359.980469 L 325.269531 361.871094 C 325.53125 362.136719 325.53125 362.5625 325.265625 362.832031 C 325.132812 362.960938 324.960938 363.027344 324.785156 363.027344 " fill-opacity="1" fill-rule="nonzero"/><path fill="#000000" d="M 316.296875 363.03125 C 316.121094 363.03125 315.949219 362.960938 315.816406 362.832031 C 315.550781 362.566406 315.550781 362.132812 315.8125 361.871094 L 317.703125 359.980469 C 317.96875 359.714844 318.398438 359.714844 318.664062 359.980469 C 318.929688 360.242188 318.929688 360.671875 318.664062 360.941406 L 316.777344 362.828125 C 316.644531 362.960938 316.472656 363.03125 316.296875 363.03125 " fill-opacity="1" fill-rule="nonzero"/><path fill="#000000" d="M 322.898438 356.410156 C 322.726562 356.410156 322.554688 356.34375 322.421875 356.214844 C 322.15625 355.949219 322.15625 355.519531 322.421875 355.253906 L 324.308594 353.363281 C 324.570312 353.097656 325 353.097656 325.265625 353.363281 C 325.53125 353.625 325.53125 354.054688 325.269531 354.324219 L 323.378906 356.210938 C 323.246094 356.34375 323.074219 356.410156 322.898438 356.410156 " fill-opacity="1" fill-rule="nonzero"/><path fill="#000000" d="M 163.042969 323.230469 C 160.320312 323.230469 158.105469 321.011719 158.105469 318.285156 C 158.105469 317.910156 158.410156 317.609375 158.785156 317.609375 C 159.160156 317.609375 159.464844 317.910156 159.464844 318.285156 C 159.464844 320.265625 161.070312 321.871094 163.042969 321.871094 C 165.015625 321.871094 166.621094 320.265625 166.621094 318.285156 C 166.621094 316.3125 165.015625 314.703125 163.042969 314.703125 C 162.667969 314.703125 162.363281 314.398438 162.363281 314.023438 C 162.363281 313.648438 162.667969 313.34375 163.042969 313.34375 C 165.761719 313.34375 167.976562 315.5625 167.976562 318.285156 C 167.976562 321.011719 165.761719 323.230469 163.042969 323.230469 " fill-opacity="1" fill-rule="nonzero"/><path fill="#99b9ff" d="M 138.292969 91.375 C 138.292969 93.492188 136.578125 95.210938 134.464844 95.210938 C 132.347656 95.210938 130.632812 93.492188 130.632812 91.375 C 130.632812 89.253906 132.347656 87.535156 134.464844 87.535156 C 136.578125 87.535156 138.292969 89.253906 138.292969 91.375 " fill-opacity="1" fill-rule="nonzero"/><path fill="#99b9ff" d="M 379.882812 351.054688 C 379.882812 353.175781 378.167969 354.890625 376.054688 354.890625 C 373.9375 354.890625 372.226562 353.175781 372.226562 351.054688 C 372.226562 348.933594 373.9375 347.214844 376.054688 347.214844 C 378.167969 347.214844 379.882812 348.933594 379.882812 351.054688 " fill-opacity="1" fill-rule="nonzero"/><path fill="#000000" d="M 240.675781 188.691406 C 240.421875 188.691406 240.175781 188.546875 240.0625 188.300781 L 232.695312 172.753906 C 232.535156 172.417969 232.679688 172.011719 233.019531 171.851562 C 233.359375 171.6875 233.765625 171.835938 233.925781 172.171875 L 241.289062 187.71875 C 241.449219 188.058594 241.304688 188.464844 240.964844 188.625 C 240.871094 188.667969 240.773438 188.691406 240.675781 188.691406 " fill-opacity="1" fill-rule="nonzero"/><path fill="#000000" d="M 236.0625 191.347656 C 235.941406 191.347656 235.820312 191.316406 235.710938 191.25 L 203.691406 171.964844 C 203.375 171.769531 203.269531 171.351562 203.460938 171.03125 C 203.65625 170.707031 204.074219 170.605469 204.394531 170.800781 L 236.410156 190.085938 C 236.730469 190.277344 236.835938 190.695312 236.644531 191.019531 C 236.511719 191.230469 236.289062 191.347656 236.0625 191.347656 " fill-opacity="1" fill-rule="nonzero"/><path fill="#000000" d="M 234.097656 196.855469 C 234.066406 196.855469 234.035156 196.855469 234.007812 196.851562 L 219.964844 194.992188 C 219.589844 194.945312 219.328125 194.601562 219.378906 194.230469 C 219.425781 193.859375 219.769531 193.597656 220.140625 193.648438 L 234.183594 195.503906 C 234.558594 195.554688 234.820312 195.894531 234.769531 196.265625 C 234.726562 196.609375 234.429688 196.855469 234.097656 196.855469 " fill-opacity="1" fill-rule="nonzero"/><path fill="#000000" d="M 338.628906 37.792969 C 338.304688 37.792969 337.984375 37.878906 337.699219 38.042969 C 337.261719 38.292969 336.949219 38.695312 336.820312 39.179688 C 336.546875 40.179688 337.140625 41.21875 338.140625 41.488281 C 338.621094 41.621094 339.128906 41.554688 339.5625 41.308594 C 339.996094 41.058594 340.308594 40.652344 340.441406 40.167969 C 340.714844 39.164062 340.121094 38.128906 339.121094 37.859375 C 338.957031 37.8125 338.792969 37.792969 338.628906 37.792969 Z M 338.632812 42.914062 C 338.347656 42.914062 338.066406 42.875 337.78125 42.800781 C 336.058594 42.332031 335.039062 40.550781 335.507812 38.824219 C 335.734375 37.988281 336.273438 37.292969 337.023438 36.863281 C 337.773438 36.433594 338.640625 36.320312 339.476562 36.546875 C 341.199219 37.015625 342.21875 38.796875 341.75 40.519531 C 341.527344 41.359375 340.988281 42.054688 340.238281 42.484375 C 339.742188 42.769531 339.191406 42.914062 338.632812 42.914062 " fill-opacity="1" fill-rule="nonzero"/><path fill="#000000" d="M 378.683594 75.886719 C 378.429688 75.886719 378.1875 75.746094 378.070312 75.503906 C 369.371094 57.472656 351.210938 47.8125 351.03125 47.714844 C 350.699219 47.542969 350.570312 47.128906 350.742188 46.800781 C 350.917969 46.46875 351.328125 46.339844 351.660156 46.511719 C 351.847656 46.613281 370.402344 56.484375 379.292969 74.910156 C 379.457031 75.25 379.316406 75.65625 378.980469 75.820312 C 378.882812 75.867188 378.785156 75.886719 378.683594 75.886719 " fill-opacity="1" fill-rule="nonzero"/><path fill="#000000" d="M 322.992188 33.472656 L 322.996094 33.472656 Z M 319.664062 29.796875 C 319.1875 29.796875 318.71875 29.921875 318.296875 30.164062 C 317.652344 30.535156 317.195312 31.128906 317 31.84375 C 316.605469 33.316406 317.472656 34.84375 318.945312 35.242188 C 319.660156 35.4375 320.402344 35.339844 321.042969 34.972656 C 321.683594 34.605469 322.144531 34.007812 322.335938 33.296875 C 322.734375 31.820312 321.863281 30.296875 320.394531 29.894531 C 320.152344 29.828125 319.90625 29.796875 319.664062 29.796875 Z M 319.675781 36.699219 C 319.3125 36.699219 318.949219 36.652344 318.589844 36.550781 C 316.398438 35.957031 315.097656 33.6875 315.691406 31.484375 C 315.980469 30.421875 316.664062 29.535156 317.621094 28.988281 C 318.574219 28.4375 319.683594 28.296875 320.75 28.582031 C 322.941406 29.179688 324.242188 31.453125 323.648438 33.648438 C 323.359375 34.714844 322.675781 35.601562 321.71875 36.148438 C 321.085938 36.511719 320.382812 36.699219 319.675781 36.699219 " fill-opacity="1" fill-rule="nonzero"/><path fill="#99b9ff" d="M 342.160156 59.585938 L 258.214844 59.585938 C 254.570312 59.585938 251.488281 62.476562 251.328125 66.042969 L 249.113281 115.78125 C 248.953125 119.34375 251.78125 122.230469 255.425781 122.230469 L 339.371094 122.230469 C 343.015625 122.230469 346.101562 119.34375 346.257812 115.78125 L 348.472656 66.042969 C 348.632812 62.476562 345.804688 59.585938 342.160156 59.585938 " fill-opacity="1" fill-rule="nonzero"/><path fill="#4e45ff" d="M 258.21875 60.265625 C 254.9375 60.265625 252.148438 62.871094 252.003906 66.070312 L 249.789062 115.8125 C 249.722656 117.320312 250.253906 118.746094 251.285156 119.824219 C 252.351562 120.941406 253.824219 121.554688 255.425781 121.554688 L 339.367188 121.554688 C 342.648438 121.554688 345.4375 118.949219 345.582031 115.75 L 347.796875 66.011719 C 347.863281 64.5 347.332031 63.078125 346.300781 61.996094 C 345.234375 60.882812 343.761719 60.265625 342.160156 60.265625 Z M 339.367188 122.914062 L 255.425781 122.914062 C 253.449219 122.914062 251.628906 122.148438 250.304688 120.761719 C 249.015625 119.414062 248.351562 117.636719 248.433594 115.75 L 250.648438 66.011719 C 250.824219 62.09375 254.21875 58.910156 258.21875 58.910156 L 342.160156 58.910156 C 344.136719 58.910156 345.957031 59.671875 347.28125 61.058594 C 348.570312 62.40625 349.234375 64.1875 349.148438 66.070312 L 346.9375 115.8125 C 346.761719 119.726562 343.363281 122.914062 339.367188 122.914062 " fill-opacity="1" fill-rule="nonzero"/><path fill="#000000" d="M 347.476562 88.363281 L 250.332031 88.363281 L 250.863281 76.441406 L 348.007812 76.441406 L 347.476562 88.363281 " fill-opacity="1" fill-rule="nonzero"/><path fill="#ffffff" d="M 336.777344 101.445312 L 318.230469 101.445312 C 316.730469 101.445312 315.570312 100.257812 315.636719 98.792969 L 315.738281 96.503906 C 315.804688 95.035156 317.070312 93.847656 318.570312 93.847656 L 337.117188 93.847656 C 338.613281 93.847656 339.777344 95.035156 339.710938 96.503906 L 339.609375 98.792969 C 339.546875 100.257812 338.277344 101.445312 336.777344 101.445312 " fill-opacity="1" fill-rule="nonzero"/><g clip-path="url(#559f82336a)"><path fill="#4e45ff" d="M 213.5625 375.929688 C 213.5625 378.898438 211.15625 381.300781 208.191406 381.300781 C 205.226562 381.300781 202.824219 378.898438 202.824219 375.929688 C 202.824219 372.964844 205.226562 370.5625 208.191406 370.5625 C 211.15625 370.5625 213.5625 372.964844 213.5625 375.929688 " fill-opacity="1" fill-rule="nonzero"/></g><path fill="#ffffff" d="M 207.617188 373.46875 C 207.617188 373.589844 207.519531 373.691406 207.394531 373.691406 C 207.273438 373.691406 207.171875 373.589844 207.171875 373.46875 C 207.171875 373.34375 207.273438 373.246094 207.394531 373.246094 C 207.519531 373.246094 207.617188 373.34375 207.617188 373.46875 " fill-opacity="1" fill-rule="nonzero"/><path fill="#ffffff" d="M 207.617188 374.082031 C 207.617188 374.207031 207.519531 374.308594 207.394531 374.308594 C 207.273438 374.308594 207.171875 374.207031 207.171875 374.082031 C 207.171875 373.960938 207.273438 373.859375 207.394531 373.859375 C 207.519531 373.859375 207.617188 373.960938 207.617188 374.082031 " fill-opacity="1" fill-rule="nonzero"/><path fill="#ffffff" d="M 207.617188 374.699219 C 207.617188 374.824219 207.519531 374.921875 207.394531 374.921875 C 207.273438 374.921875 207.171875 374.824219 207.171875 374.699219 C 207.171875 374.578125 207.273438 374.476562 207.394531 374.476562 C 207.519531 374.476562 207.617188 374.578125 207.617188 374.699219 " fill-opacity="1" fill-rule="nonzero"/><path fill="#ffffff" d="M 207.617188 375.316406 C 207.617188 375.4375 207.519531 375.539062 207.394531 375.539062 C 207.273438 375.539062 207.171875 375.4375 207.171875 375.316406 C 207.171875 375.191406 207.273438 375.09375 207.394531 375.09375 C 207.519531 375.09375 207.617188 375.191406 207.617188 375.316406 " fill-opacity="1" fill-rule="nonzero"/><path fill="#ffffff" d="M 207.617188 375.929688 C 207.617188 376.054688 207.519531 376.15625 207.394531 376.15625 C 207.273438 376.15625 207.171875 376.054688 207.171875 375.929688 C 207.171875 375.808594 207.273438 375.707031 207.394531 375.707031 C 207.519531 375.707031 207.617188 375.808594 207.617188 375.929688 " fill-opacity="1" fill-rule="nonzero"/><path fill="#ffffff" d="M 207.617188 376.546875 C 207.617188 376.671875 207.519531 376.769531 207.394531 376.769531 C 207.273438 376.769531 207.171875 376.671875 207.171875 376.546875 C 207.171875 376.425781 207.273438 376.324219 207.394531 376.324219 C 207.519531 376.324219 207.617188 376.425781 207.617188 376.546875 " fill-opacity="1" fill-rule="nonzero"/><path fill="#ffffff" d="M 207.617188 377.164062 C 207.617188 377.285156 207.519531 377.386719 207.394531 377.386719 C 207.273438 377.386719 207.171875 377.285156 207.171875 377.164062 C 207.171875 377.039062 207.273438 376.941406 207.394531 376.941406 C 207.519531 376.941406 207.617188 377.039062 207.617188 377.164062 " fill-opacity="1" fill-rule="nonzero"/><path fill="#ffffff" d="M 207.617188 377.78125 C 207.617188 377.902344 207.519531 378.003906 207.394531 378.003906 C 207.273438 378.003906 207.171875 377.902344 207.171875 377.78125 C 207.171875 377.65625 207.273438 377.554688 207.394531 377.554688 C 207.519531 377.554688 207.617188 377.65625 207.617188 377.78125 " fill-opacity="1" fill-rule="nonzero"/><path fill="#ffffff" d="M 207.617188 378.394531 C 207.617188 378.519531 207.519531 378.617188 207.394531 378.617188 C 207.273438 378.617188 207.171875 378.519531 207.171875 378.394531 C 207.171875 378.273438 207.273438 378.171875 207.394531 378.171875 C 207.519531 378.171875 207.617188 378.273438 207.617188 378.394531 " fill-opacity="1" fill-rule="nonzero"/><path fill="#ffffff" d="M 208.238281 374.082031 C 208.238281 374.207031 208.140625 374.308594 208.015625 374.308594 C 207.894531 374.308594 207.792969 374.207031 207.792969 374.082031 C 207.792969 373.960938 207.894531 373.859375 208.015625 373.859375 C 208.140625 373.859375 208.238281 373.960938 208.238281 374.082031 " fill-opacity="1" fill-rule="nonzero"/><path fill="#ffffff" d="M 208.238281 374.699219 C 208.238281 374.824219 208.140625 374.921875 208.015625 374.921875 C 207.894531 374.921875 207.792969 374.824219 207.792969 374.699219 C 207.792969 374.578125 207.894531 374.476562 208.015625 374.476562 C 208.140625 374.476562 208.238281 374.578125 208.238281 374.699219 " fill-opacity="1" fill-rule="nonzero"/><path fill="#ffffff" d="M 208.238281 375.316406 C 208.238281 375.4375 208.140625 375.539062 208.015625 375.539062 C 207.894531 375.539062 207.792969 375.4375 207.792969 375.316406 C 207.792969 375.191406 207.894531 375.09375 208.015625 375.09375 C 208.140625 375.09375 208.238281 375.191406 208.238281 375.316406 " fill-opacity="1" fill-rule="nonzero"/><path fill="#ffffff" d="M 208.238281 375.929688 C 208.238281 376.054688 208.140625 376.15625 208.015625 376.15625 C 207.894531 376.15625 207.792969 376.054688 207.792969 375.929688 C 207.792969 375.808594 207.894531 375.707031 208.015625 375.707031 C 208.140625 375.707031 208.238281 375.808594 208.238281 375.929688 " fill-opacity="1" fill-rule="nonzero"/><path fill="#ffffff" d="M 208.238281 376.546875 C 208.238281 376.671875 208.140625 376.769531 208.015625 376.769531 C 207.894531 376.769531 207.792969 376.671875 207.792969 376.546875 C 207.792969 376.425781 207.894531 376.324219 208.015625 376.324219 C 208.140625 376.324219 208.238281 376.425781 208.238281 376.546875 " fill-opacity="1" fill-rule="nonzero"/><path fill="#ffffff" d="M 208.238281 377.164062 C 208.238281 377.285156 208.140625 377.386719 208.015625 377.386719 C 207.894531 377.386719 207.792969 377.285156 207.792969 377.164062 C 207.792969 377.039062 207.894531 376.941406 208.015625 376.941406 C 208.140625 376.941406 208.238281 377.039062 208.238281 377.164062 " fill-opacity="1" fill-rule="nonzero"/><path fill="#ffffff" d="M 208.238281 377.78125 C 208.238281 377.902344 208.140625 378.003906 208.015625 378.003906 C 207.894531 378.003906 207.792969 377.902344 207.792969 377.78125 C 207.792969 377.65625 207.894531 377.554688 208.015625 377.554688 C 208.140625 377.554688 208.238281 377.65625 208.238281 377.78125 " fill-opacity="1" fill-rule="nonzero"/><path fill="#ffffff" d="M 208.863281 374.699219 C 208.863281 374.824219 208.761719 374.921875 208.636719 374.921875 C 208.515625 374.921875 208.414062 374.824219 208.414062 374.699219 C 208.414062 374.578125 208.515625 374.476562 208.636719 374.476562 C 208.761719 374.476562 208.863281 374.578125 208.863281 374.699219 " fill-opacity="1" fill-rule="nonzero"/><path fill="#ffffff" d="M 208.863281 375.316406 C 208.863281 375.4375 208.761719 375.539062 208.636719 375.539062 C 208.515625 375.539062 208.414062 375.4375 208.414062 375.316406 C 208.414062 375.191406 208.515625 375.09375 208.636719 375.09375 C 208.761719 375.09375 208.863281 375.191406 208.863281 375.316406 " fill-opacity="1" fill-rule="nonzero"/><path fill="#ffffff" d="M 208.863281 375.929688 C 208.863281 376.054688 208.761719 376.15625 208.636719 376.15625 C 208.515625 376.15625 208.414062 376.054688 208.414062 375.929688 C 208.414062 375.808594 208.515625 375.707031 208.636719 375.707031 C 208.761719 375.707031 208.863281 375.808594 208.863281 375.929688 " fill-opacity="1" fill-rule="nonzero"/><path fill="#ffffff" d="M 208.863281 376.546875 C 208.863281 376.671875 208.761719 376.769531 208.636719 376.769531 C 208.515625 376.769531 208.414062 376.671875 208.414062 376.546875 C 208.414062 376.425781 208.515625 376.324219 208.636719 376.324219 C 208.761719 376.324219 208.863281 376.425781 208.863281 376.546875 " fill-opacity="1" fill-rule="nonzero"/><path fill="#ffffff" d="M 208.863281 377.164062 C 208.863281 377.285156 208.761719 377.386719 208.636719 377.386719 C 208.515625 377.386719 208.414062 377.285156 208.414062 377.164062 C 208.414062 377.039062 208.515625 376.941406 208.636719 376.941406 C 208.761719 376.941406 208.863281 377.039062 208.863281 377.164062 " fill-opacity="1" fill-rule="nonzero"/><path fill="#ffffff" d="M 209.484375 375.316406 C 209.484375 375.4375 209.382812 375.539062 209.261719 375.539062 C 209.136719 375.539062 209.035156 375.4375 209.035156 375.316406 C 209.035156 375.191406 209.136719 375.09375 209.261719 375.09375 C 209.382812 375.09375 209.484375 375.191406 209.484375 375.316406 " fill-opacity="1" fill-rule="nonzero"/><path fill="#ffffff" d="M 209.484375 375.929688 C 209.484375 376.054688 209.382812 376.15625 209.261719 376.15625 C 209.136719 376.15625 209.035156 376.054688 209.035156 375.929688 C 209.035156 375.808594 209.136719 375.707031 209.261719 375.707031 C 209.382812 375.707031 209.484375 375.808594 209.484375 375.929688 " fill-opacity="1" fill-rule="nonzero"/><path fill="#ffffff" d="M 209.484375 376.546875 C 209.484375 376.671875 209.382812 376.769531 209.261719 376.769531 C 209.136719 376.769531 209.035156 376.671875 209.035156 376.546875 C 209.035156 376.425781 209.136719 376.324219 209.261719 376.324219 C 209.382812 376.324219 209.484375 376.425781 209.484375 376.546875 " fill-opacity="1" fill-rule="nonzero"/><path fill="#ffffff" d="M 210.105469 375.929688 C 210.105469 376.054688 210.003906 376.15625 209.882812 376.15625 C 209.757812 376.15625 209.660156 376.054688 209.660156 375.929688 C 209.660156 375.808594 209.757812 375.707031 209.882812 375.707031 C 210.003906 375.707031 210.105469 375.808594 210.105469 375.929688 " fill-opacity="1" fill-rule="nonzero"/></svg>