<svg xmlns="http://www.w3.org/2000/svg" xmlns:xlink="http://www.w3.org/1999/xlink" width="138" zoomAndPan="magnify" viewBox="0 0 103.5 113.249998" height="151" preserveAspectRatio="xMidYMid meet" version="1.0"><defs><clipPath id="118e79bdab"><path d="M 0.507812 0.480469 L 102.582031 0.480469 L 102.582031 112.238281 L 0.507812 112.238281 Z M 0.507812 0.480469 " clip-rule="nonzero"/></clipPath><clipPath id="236f57b36e"><path d="M 37.160156 48.921875 L 68.835938 48.921875 L 68.835938 68.898438 L 37.160156 68.898438 Z M 37.160156 48.921875 " clip-rule="nonzero"/></clipPath><clipPath id="c2fe62509f"><path d="M 36 36.113281 L 67 36.113281 L 67 59 L 36 59 Z M 36 36.113281 " clip-rule="nonzero"/></clipPath><clipPath id="830cd1067b"><path d="M 37.160156 48.921875 L 68.835938 48.921875 L 68.835938 68.898438 L 37.160156 68.898438 Z M 37.160156 48.921875 " clip-rule="nonzero"/></clipPath><clipPath id="c105b3445c"><path d="M 36 36.113281 L 67 36.113281 L 67 59 L 36 59 Z M 36 36.113281 " clip-rule="nonzero"/></clipPath></defs><g clip-path="url(#118e79bdab)"><path fill="#000000" d="M 9.839844 26.664062 C 19.824219 18.851562 29.050781 14.507812 41.371094 11.160156 C 51.046875 8.527344 51.949219 8.527344 61.625 11.160156 C 73.945312 14.511719 83.171875 18.851562 93.15625 26.664062 C 94.859375 30.4375 92.941406 43.269531 92.15625 47.453125 C 90.578125 55.851562 87.671875 64.105469 83.570312 71.695312 L 89.941406 78.066406 C 95.128906 69.089844 98.773438 59.1875 100.675781 49.054688 C 102.824219 37.59375 103.90625 24.109375 98.96875 20.207031 C 88.082031 11.597656 78 6.628906 63.898438 2.792969 C 52.554688 -0.292969 50.441406 -0.292969 39.097656 2.792969 C 24.996094 6.628906 14.914062 11.597656 4.027344 20.207031 C -0.90625 24.109375 0.171875 37.59375 2.320312 49.054688 C 7.429688 76.289062 25.132812 101.847656 51.5 112.226562 C 62.488281 107.902344 71.972656 100.9375 79.667969 92.3125 L 73.527344 86.171875 C 67.40625 93.125 60.003906 98.890625 51.5 102.804688 C 29.726562 92.78125 15.195312 70.664062 10.839844 47.453125 C 10.054688 43.269531 8.136719 30.4375 9.839844 26.664062 Z M 9.839844 26.664062 " fill-opacity="1" fill-rule="evenodd"/></g><path fill="#808080" d="M 51.496094 97.996094 L 51.496094 82.011719 C 58.253906 82.011719 64.492188 79.789062 69.519531 76.03125 L 84.832031 91.34375 C 90.09375 96.605469 96.542969 90.792969 90.484375 84.734375 L 75.648438 69.902344 C 79.40625 64.875 81.628906 58.636719 81.628906 51.878906 C 81.628906 35.238281 68.136719 21.75 51.496094 21.75 L 51.496094 13.519531 C 49.234375 13.519531 46.972656 14.128906 42.507812 15.339844 C 31.226562 18.410156 22.753906 22.292969 13.671875 29.183594 C 12.9375 33.445312 14.40625 42.9375 15.101562 46.65625 C 19.070312 67.816406 32.019531 88.1875 51.496094 97.996094 Z M 51.496094 73.34375 C 39.644531 73.34375 30.035156 63.734375 30.035156 51.878906 C 30.035156 40.027344 39.644531 30.417969 51.496094 30.417969 C 63.351562 30.417969 72.960938 40.027344 72.960938 51.878906 C 72.960938 63.734375 63.351562 73.34375 51.496094 73.34375 Z M 51.496094 73.34375 " fill-opacity="1" fill-rule="evenodd"/><path fill="#fadc33" d="M 52.492188 38.207031 C 42.617188 38.207031 35.683594 48.117188 39.117188 57.445312 L 47.777344 53.464844 L 47.777344 47.363281 C 47.777344 47.15625 47.613281 46.988281 47.410156 46.988281 L 45.421875 46.988281 L 45.421875 44.625 L 49.351562 44.625 L 49.351562 42.261719 L 50.921875 42.261719 L 50.921875 44.625 L 52.492188 44.625 L 52.492188 42.261719 L 54.0625 42.261719 L 54.0625 44.625 C 54.949219 44.667969 55.691406 44.9375 55.917969 45.007812 C 56.710938 45.238281 57.429688 45.839844 57.882812 46.652344 L 64.03125 44.128906 C 61.441406 40.542969 57.234375 38.207031 52.492188 38.207031 " fill-opacity="1" fill-rule="nonzero"/><path fill="#fadc33" d="M 64.4375 52.832031 L 58.960938 53.953125 C 60.230469 56.019531 59.683594 59.148438 55.589844 60.175781 C 55.175781 60.28125 54.394531 60.375 54.0625 60.386719 L 54.0625 62.75 L 52.492188 62.75 L 52.492188 60.386719 L 50.921875 60.386719 L 50.921875 62.75 L 49.351562 62.75 L 49.351562 60.386719 L 45.421875 60.386719 L 45.421875 58.023438 L 47.417969 58.023438 C 47.617188 58.023438 47.777344 57.859375 47.777344 57.660156 L 47.777344 56.238281 L 39.320312 57.96875 C 41.464844 63.148438 46.5625 66.804688 52.492188 66.804688 C 61.550781 66.804688 68.40625 58.363281 66.398438 49.378906 L 61.289062 50.496094 L 64.4375 52.832031 " fill-opacity="1" fill-rule="nonzero"/><g clip-path="url(#236f57b36e)"><path fill="#fadc33" d="M 67.441406 49.152344 C 69.589844 58.796875 62.230469 67.871094 52.492188 67.871094 C 46.046875 67.871094 40.519531 63.855469 38.261719 58.183594 L 37.242188 58.394531 C 39.601562 64.539062 45.539062 68.898438 52.492188 68.898438 C 62.96875 68.898438 70.707031 59.164062 68.441406 48.933594 L 67.441406 49.152344 " fill-opacity="1" fill-rule="nonzero"/></g><g clip-path="url(#c2fe62509f)"><path fill="#fadc33" d="M 52.492188 37.140625 C 57.683594 37.140625 62.273438 39.742188 65.046875 43.710938 L 66.023438 43.3125 C 63.082031 38.96875 58.121094 36.113281 52.492188 36.113281 C 41.074219 36.113281 33.15625 47.601562 37.214844 58.320312 L 38.144531 57.890625 C 34.390625 47.855469 41.839844 37.140625 52.492188 37.140625 " fill-opacity="1" fill-rule="nonzero"/></g><path fill="#fadc33" d="M 50.921875 46.988281 L 50.921875 50.929688 C 52.632812 50.929688 52.941406 50.960938 53.5625 50.808594 C 54.65625 50.308594 54.640625 50.359375 54.894531 50.03125 L 52.492188 48.863281 L 54.886719 47.878906 C 54.058594 46.816406 52.320312 46.988281 50.921875 46.988281 " fill-opacity="1" fill-rule="nonzero"/><path fill="#fadc33" d="M 52.886719 58.023438 C 52.886719 58.023438 56.40625 58.089844 56.421875 55.65625 C 56.417969 55.203125 56.292969 54.835938 56.089844 54.539062 L 50.921875 55.59375 L 50.921875 58.023438 L 52.886719 58.023438 " fill-opacity="1" fill-rule="nonzero"/><path fill="#fab10b" d="M 39.117188 57.445312 C 39.003906 57.136719 38.902344 56.828125 38.8125 56.523438 C 38.8125 56.519531 38.808594 56.519531 38.808594 56.519531 C 38.808594 56.515625 38.808594 56.515625 38.808594 56.515625 C 38.414062 55.171875 38.226562 53.824219 38.226562 52.503906 C 38.226562 50.261719 38.761719 48.097656 39.726562 46.160156 C 39.726562 46.160156 39.726562 46.15625 39.726562 46.15625 C 39.730469 46.15625 39.730469 46.15625 39.730469 46.15625 C 42.03125 41.539062 46.769531 38.207031 52.492188 38.207031 C 57.234375 38.207031 61.441406 40.542969 64.03125 44.128906 L 57.882812 46.652344 C 57.429688 45.839844 56.710938 45.238281 55.917969 45.007812 C 55.691406 44.9375 54.949219 44.667969 54.0625 44.625 L 54.0625 42.261719 L 52.492188 42.261719 L 52.492188 44.625 L 50.921875 44.625 L 50.921875 42.261719 L 49.351562 42.261719 L 49.351562 44.625 L 45.421875 44.625 L 45.421875 46.988281 L 47.410156 46.988281 C 47.613281 46.988281 47.777344 47.15625 47.777344 47.363281 L 47.777344 53.464844 L 39.117188 57.445312 " fill-opacity="1" fill-rule="nonzero"/><path fill="#fab10b" d="M 52.492188 66.804688 C 46.5625 66.804688 41.464844 63.148438 39.320312 57.96875 L 47.777344 56.238281 L 47.777344 57.660156 C 47.777344 57.859375 47.617188 58.023438 47.417969 58.023438 L 45.421875 58.023438 L 45.421875 60.386719 L 49.351562 60.386719 L 49.351562 62.75 L 50.921875 62.75 L 50.921875 60.386719 L 52.492188 60.386719 L 52.492188 62.75 L 54.0625 62.75 L 54.0625 60.386719 C 54.0625 60.386719 54.066406 60.386719 54.066406 60.386719 C 54.546875 60.371094 55.003906 60.3125 55.441406 60.210938 C 55.496094 60.199219 55.542969 60.1875 55.589844 60.175781 C 56.277344 60.003906 56.863281 59.773438 57.355469 59.496094 C 58.285156 59.03125 58.9375 58.300781 59.285156 57.464844 C 59.476562 57.007812 59.566406 56.527344 59.566406 56.050781 C 59.566406 55.757812 59.53125 55.460938 59.464844 55.175781 C 59.367188 54.757812 59.199219 54.34375 58.960938 53.953125 L 64.4375 52.832031 L 61.289062 50.496094 L 66.398438 49.378906 C 66.449219 49.605469 66.496094 49.828125 66.535156 50.054688 C 66.535156 50.058594 66.535156 50.058594 66.535156 50.0625 C 66.535156 50.0625 66.535156 50.066406 66.535156 50.066406 C 66.679688 50.898438 66.75 51.722656 66.75 52.535156 C 66.75 55.914062 65.542969 59.074219 63.515625 61.558594 C 63.515625 61.558594 63.511719 61.5625 63.511719 61.5625 C 63.511719 61.566406 63.507812 61.566406 63.507812 61.566406 C 63.507812 61.566406 63.507812 61.566406 63.507812 61.570312 C 60.910156 64.742188 56.96875 66.804688 52.492188 66.804688 " fill-opacity="1" fill-rule="nonzero"/><g clip-path="url(#830cd1067b)"><path fill="#fab10b" d="M 52.492188 68.898438 C 45.539062 68.898438 39.601562 64.539062 37.242188 58.394531 L 38.261719 58.183594 C 40.519531 63.855469 46.046875 67.871094 52.492188 67.871094 C 52.5 67.871094 52.511719 67.871094 52.519531 67.871094 C 56.417969 67.867188 59.929688 66.40625 62.605469 64.039062 C 62.605469 64.039062 62.605469 64.039062 62.609375 64.035156 C 65.816406 61.195312 67.816406 57.050781 67.816406 52.542969 C 67.816406 51.429688 67.695312 50.292969 67.441406 49.152344 L 68.441406 48.933594 C 68.707031 50.144531 68.835938 51.347656 68.835938 52.53125 C 68.835938 61.332031 61.726562 68.898438 52.492188 68.898438 " fill-opacity="1" fill-rule="nonzero"/></g><g clip-path="url(#c105b3445c)"><path fill="#fab10b" d="M 37.214844 58.320312 C 36.480469 56.378906 36.136719 54.417969 36.136719 52.5 C 36.136719 43.820312 43.136719 36.113281 52.492188 36.113281 C 58.121094 36.113281 63.082031 38.96875 66.023438 43.3125 L 65.046875 43.710938 C 62.273438 39.742188 57.683594 37.140625 52.492188 37.140625 C 52.484375 37.140625 52.476562 37.140625 52.46875 37.140625 C 47.015625 37.148438 42.40625 39.960938 39.710938 44.054688 C 38.089844 46.519531 37.160156 49.441406 37.160156 52.5 C 37.160156 54.269531 37.472656 56.082031 38.140625 57.875 C 38.140625 57.878906 38.144531 57.886719 38.144531 57.890625 L 37.214844 58.320312 " fill-opacity="1" fill-rule="nonzero"/></g><path fill="#fab10b" d="M 52.09375 50.933594 C 51.792969 50.933594 51.414062 50.929688 50.921875 50.929688 L 50.921875 46.988281 C 51.257812 46.988281 51.609375 46.980469 51.964844 46.980469 C 53.105469 46.980469 54.257812 47.074219 54.886719 47.878906 L 52.492188 48.863281 L 54.894531 50.03125 C 54.640625 50.359375 54.65625 50.308594 53.5625 50.808594 C 53.484375 50.828125 53.410156 50.84375 53.339844 50.859375 C 53.003906 50.921875 52.703125 50.933594 52.09375 50.933594 " fill-opacity="1" fill-rule="nonzero"/><path fill="#fab10b" d="M 52.914062 58.023438 C 52.894531 58.023438 52.886719 58.023438 52.886719 58.023438 L 50.921875 58.023438 L 50.921875 55.59375 L 56.089844 54.539062 C 56.292969 54.835938 56.417969 55.203125 56.421875 55.65625 C 56.421875 55.660156 56.421875 55.660156 56.421875 55.660156 C 56.421875 55.671875 56.421875 55.679688 56.421875 55.6875 C 56.421875 55.691406 56.421875 55.695312 56.421875 55.695312 C 56.421875 55.703125 56.421875 55.710938 56.421875 55.714844 C 56.421875 55.71875 56.421875 55.722656 56.421875 55.722656 C 56.421875 55.722656 56.421875 55.726562 56.421875 55.726562 C 56.417969 55.734375 56.417969 55.738281 56.417969 55.746094 C 56.417969 55.75 56.417969 55.75 56.417969 55.75 C 56.417969 55.75 56.417969 55.753906 56.417969 55.753906 C 56.417969 55.757812 56.417969 55.765625 56.417969 55.769531 C 56.417969 55.769531 56.417969 55.773438 56.417969 55.777344 C 56.300781 57.925781 53.347656 58.019531 52.933594 58.023438 C 52.933594 58.023438 52.933594 58.023438 52.929688 58.023438 C 52.925781 58.023438 52.921875 58.023438 52.917969 58.023438 C 52.917969 58.023438 52.914062 58.023438 52.914062 58.023438 " fill-opacity="1" fill-rule="nonzero"/><path fill="#fadc33" d="M 52.492188 38.207031 C 57.234375 38.207031 61.441406 40.542969 64.03125 44.128906 L 65.046875 43.710938 C 62.273438 39.742188 57.683594 37.140625 52.492188 37.140625 C 41.851562 37.140625 34.386719 47.84375 38.144531 57.890625 L 39.117188 57.445312 C 35.679688 48.113281 42.621094 38.207031 52.492188 38.207031 " fill-opacity="1" fill-rule="nonzero"/><path fill="#fadc33" d="M 52.492188 66.804688 C 46.5625 66.804688 41.464844 63.148438 39.320312 57.96875 L 38.261719 58.183594 C 40.519531 63.855469 46.046875 67.871094 52.492188 67.871094 C 62.226562 67.871094 69.59375 58.804688 67.441406 49.152344 L 66.398438 49.378906 C 68.40625 58.363281 61.550781 66.804688 52.492188 66.804688 " fill-opacity="1" fill-rule="nonzero"/><path fill="#f8f787" d="M 38.144531 57.890625 C 38.144531 57.886719 38.140625 57.878906 38.140625 57.875 C 37.472656 56.082031 37.160156 54.269531 37.160156 52.5 C 37.160156 44.355469 43.753906 37.140625 52.492188 37.140625 C 57.683594 37.140625 62.273438 39.742188 65.046875 43.710938 L 64.03125 44.128906 C 61.441406 40.542969 57.234375 38.207031 52.492188 38.207031 C 46.769531 38.207031 42.03125 41.539062 39.730469 46.15625 C 39.730469 46.15625 39.730469 46.15625 39.726562 46.15625 C 39.726562 46.15625 39.726562 46.160156 39.726562 46.160156 C 38.761719 48.097656 38.226562 50.261719 38.226562 52.5 C 38.226562 54.128906 38.507812 55.796875 39.117188 57.445312 L 38.144531 57.890625 " fill-opacity="1" fill-rule="nonzero"/><path fill="#f8f787" d="M 52.492188 67.871094 C 46.046875 67.871094 40.519531 63.855469 38.261719 58.183594 L 39.320312 57.96875 C 41.464844 63.148438 46.5625 66.804688 52.492188 66.804688 C 60.480469 66.804688 66.75 60.242188 66.75 52.535156 C 66.75 51.722656 66.679688 50.898438 66.535156 50.066406 C 66.535156 50.066406 66.535156 50.0625 66.535156 50.0625 C 66.535156 50.058594 66.535156 50.058594 66.535156 50.054688 C 66.496094 49.828125 66.449219 49.605469 66.398438 49.378906 L 67.441406 49.152344 C 67.695312 50.292969 67.816406 51.429688 67.816406 52.542969 C 67.816406 57.050781 65.816406 61.195312 62.609375 64.035156 C 62.605469 64.039062 62.605469 64.039062 62.605469 64.039062 C 59.929688 66.40625 56.417969 67.867188 52.519531 67.871094 C 52.511719 67.871094 52.5 67.871094 52.492188 67.871094 " fill-opacity="1" fill-rule="nonzero"/><path fill="#fadc33" d="M 56.421875 55.65625 C 56.40625 58.089844 52.886719 58.023438 52.886719 58.023438 L 50.921875 58.023438 L 50.921875 55.59375 L 47.777344 56.238281 L 47.777344 57.660156 C 47.777344 57.859375 47.617188 58.023438 47.417969 58.023438 L 45.421875 58.023438 L 45.421875 60.386719 L 49.351562 60.386719 L 49.351562 62.75 L 50.921875 62.75 L 50.921875 60.386719 L 52.492188 60.386719 L 52.492188 62.75 L 54.0625 62.75 L 54.0625 60.386719 C 55.214844 60.351562 56.207031 60.054688 57.164062 59.589844 C 59.472656 58.5625 60.210938 55.984375 58.960938 53.953125 L 56.089844 54.539062 C 56.292969 54.835938 56.417969 55.203125 56.421875 55.65625 " fill-opacity="1" fill-rule="nonzero"/><path fill="#fadc33" d="M 50.921875 50.929688 L 50.921875 46.988281 C 52.332031 46.988281 54.066406 46.824219 54.886719 47.878906 L 57.882812 46.652344 C 57.429688 45.839844 56.710938 45.238281 55.917969 45.007812 C 55.691406 44.9375 54.949219 44.667969 54.0625 44.625 L 54.0625 42.261719 L 52.492188 42.261719 L 52.492188 44.625 L 50.921875 44.625 L 50.921875 42.261719 L 49.351562 42.261719 L 49.351562 44.625 L 45.421875 44.625 L 45.421875 46.988281 L 47.410156 46.988281 C 47.613281 46.988281 47.777344 47.15625 47.777344 47.363281 L 47.777344 53.464844 L 53.5625 50.808594 C 52.9375 50.960938 52.632812 50.929688 50.921875 50.929688 " fill-opacity="1" fill-rule="nonzero"/><path fill="#fadc33" d="M 56.421875 55.65625 C 56.40625 58.089844 52.886719 58.023438 52.886719 58.023438 L 50.921875 58.023438 L 50.921875 55.59375 L 47.777344 56.238281 L 47.777344 57.660156 C 47.777344 57.859375 47.617188 58.023438 47.417969 58.023438 L 45.421875 58.023438 L 45.421875 60.386719 L 49.351562 60.386719 L 49.351562 62.75 L 50.921875 62.75 L 50.921875 60.386719 L 52.492188 60.386719 L 52.492188 62.75 L 54.0625 62.75 L 54.0625 60.386719 C 55.214844 60.351562 56.207031 60.054688 57.164062 59.589844 C 59.472656 58.5625 60.210938 55.984375 58.960938 53.953125 L 56.089844 54.539062 C 56.292969 54.835938 56.417969 55.203125 56.421875 55.65625 " fill-opacity="1" fill-rule="nonzero"/><path fill="#fadc33" d="M 50.921875 50.929688 L 50.921875 46.988281 C 52.332031 46.988281 54.066406 46.824219 54.886719 47.878906 L 57.882812 46.652344 C 57.429688 45.839844 56.710938 45.238281 55.917969 45.007812 C 55.691406 44.9375 54.949219 44.667969 54.0625 44.625 L 54.0625 42.261719 L 52.492188 42.261719 L 52.492188 44.625 L 50.921875 44.625 L 50.921875 42.261719 L 49.351562 42.261719 L 49.351562 44.625 L 45.421875 44.625 L 45.421875 46.988281 L 47.410156 46.988281 C 47.613281 46.988281 47.777344 47.15625 47.777344 47.363281 L 47.777344 53.464844 L 53.5625 50.808594 C 52.9375 50.960938 52.632812 50.929688 50.921875 50.929688 " fill-opacity="1" fill-rule="nonzero"/><path fill="#f8f787" d="M 54.0625 62.75 L 52.492188 62.75 L 52.492188 60.386719 L 50.921875 60.386719 L 50.921875 62.75 L 49.351562 62.75 L 49.351562 60.386719 L 45.421875 60.386719 L 45.421875 58.023438 L 47.417969 58.023438 C 47.617188 58.023438 47.777344 57.859375 47.777344 57.660156 L 47.777344 56.238281 L 50.921875 55.59375 L 50.921875 58.023438 L 52.886719 58.023438 C 52.886719 58.023438 52.894531 58.023438 52.914062 58.023438 C 53.25 58.023438 56.40625 57.960938 56.421875 55.65625 C 56.417969 55.203125 56.292969 54.835938 56.089844 54.539062 L 58.960938 53.953125 C 59.367188 54.613281 59.5625 55.335938 59.5625 56.039062 C 59.5625 56.53125 59.46875 57.011719 59.285156 57.464844 C 58.9375 58.300781 58.285156 59.03125 57.355469 59.496094 C 57.292969 59.53125 57.230469 59.558594 57.164062 59.589844 C 56.609375 59.859375 56.042969 60.070312 55.441406 60.210938 C 55.003906 60.3125 54.546875 60.371094 54.066406 60.386719 C 54.066406 60.386719 54.0625 60.386719 54.0625 60.386719 L 54.0625 62.75 " fill-opacity="1" fill-rule="nonzero"/><path fill="#f8f787" d="M 47.777344 53.464844 L 47.777344 47.363281 C 47.777344 47.15625 47.613281 46.988281 47.410156 46.988281 L 45.421875 46.988281 L 45.421875 44.625 L 49.351562 44.625 L 49.351562 42.261719 L 50.921875 42.261719 L 50.921875 44.625 L 52.492188 44.625 L 52.492188 42.261719 L 54.0625 42.261719 L 54.0625 44.625 C 54.949219 44.667969 55.691406 44.9375 55.917969 45.007812 C 56.710938 45.238281 57.429688 45.839844 57.882812 46.652344 L 54.886719 47.878906 C 54.257812 47.074219 53.105469 46.980469 51.964844 46.980469 C 51.609375 46.980469 51.257812 46.988281 50.921875 46.988281 L 50.921875 50.929688 C 51.417969 50.929688 51.796875 50.933594 52.097656 50.933594 C 52.835938 50.933594 53.121094 50.917969 53.5625 50.808594 L 47.777344 53.464844 " fill-opacity="1" fill-rule="nonzero"/></svg>